G04 #@! TF.GenerationSoftware,KiCad,Pcbnew,(2018-02-15 revision 29b28de31)-makepkg*
G04 #@! TF.CreationDate,2018-04-28T16:50:53+09:30*
G04 #@! TF.ProjectId,short_oled_ssd1306,73686F72745F6F6C65645F7373643133,rev?*
G04 #@! TF.SameCoordinates,Original*
G04 #@! TF.FileFunction,Soldermask,Bot*
G04 #@! TF.FilePolarity,Negative*
%FSLAX46Y46*%
G04 Gerber Fmt 4.6, Leading zero omitted, Abs format (unit mm)*
G04 Created by KiCad (PCBNEW (2018-02-15 revision 29b28de31)-makepkg) date 04/28/18 16:50:53*
%MOMM*%
%LPD*%
G01*
G04 APERTURE LIST*
%ADD10C,0.200000*%
%ADD11C,0.254000*%
%ADD12C,0.100000*%
G04 APERTURE END LIST*
D10*
X199500000Y-131000000D02*
X203000000Y-131000000D01*
X199500000Y-127500000D02*
X199500000Y-131000000D01*
X183000000Y-131000000D02*
X183000000Y-127500000D01*
X179500000Y-131000000D02*
X183000000Y-131000000D01*
D11*
X179500000Y-131000000D02*
X179500000Y-146500000D01*
X203000000Y-131000000D02*
X203000000Y-146500000D01*
X183000000Y-127500000D02*
X199500000Y-127500000D01*
X179500000Y-146500000D02*
X203000000Y-146500000D01*
D12*
G36*
X195900800Y-129900800D02*
X194099200Y-129900800D01*
X194099200Y-128099200D01*
X195900800Y-128099200D01*
X195900800Y-129900800D01*
X195900800Y-129900800D01*
G37*
G36*
X192636588Y-128112234D02*
X192636591Y-128112235D01*
X192806388Y-128163742D01*
X192962880Y-128247389D01*
X193100044Y-128359956D01*
X193212611Y-128497120D01*
X193296258Y-128653612D01*
X193341875Y-128803992D01*
X193347766Y-128823412D01*
X193365158Y-129000000D01*
X193347766Y-129176588D01*
X193347765Y-129176591D01*
X193296258Y-129346388D01*
X193212611Y-129502880D01*
X193100044Y-129640044D01*
X192962880Y-129752611D01*
X192806388Y-129836258D01*
X192656008Y-129881875D01*
X192636588Y-129887766D01*
X192504249Y-129900800D01*
X192415751Y-129900800D01*
X192283412Y-129887766D01*
X192263992Y-129881875D01*
X192113612Y-129836258D01*
X191957120Y-129752611D01*
X191819956Y-129640044D01*
X191707389Y-129502880D01*
X191623742Y-129346388D01*
X191572235Y-129176591D01*
X191572234Y-129176588D01*
X191554842Y-129000000D01*
X191572234Y-128823412D01*
X191578125Y-128803992D01*
X191623742Y-128653612D01*
X191707389Y-128497120D01*
X191819956Y-128359956D01*
X191957120Y-128247389D01*
X192113612Y-128163742D01*
X192283409Y-128112235D01*
X192283412Y-128112234D01*
X192415751Y-128099200D01*
X192504249Y-128099200D01*
X192636588Y-128112234D01*
X192636588Y-128112234D01*
G37*
G36*
X190096588Y-128112234D02*
X190096591Y-128112235D01*
X190266388Y-128163742D01*
X190422880Y-128247389D01*
X190560044Y-128359956D01*
X190672611Y-128497120D01*
X190756258Y-128653612D01*
X190801875Y-128803992D01*
X190807766Y-128823412D01*
X190825158Y-129000000D01*
X190807766Y-129176588D01*
X190807765Y-129176591D01*
X190756258Y-129346388D01*
X190672611Y-129502880D01*
X190560044Y-129640044D01*
X190422880Y-129752611D01*
X190266388Y-129836258D01*
X190116008Y-129881875D01*
X190096588Y-129887766D01*
X189964249Y-129900800D01*
X189875751Y-129900800D01*
X189743412Y-129887766D01*
X189723992Y-129881875D01*
X189573612Y-129836258D01*
X189417120Y-129752611D01*
X189279956Y-129640044D01*
X189167389Y-129502880D01*
X189083742Y-129346388D01*
X189032235Y-129176591D01*
X189032234Y-129176588D01*
X189014842Y-129000000D01*
X189032234Y-128823412D01*
X189038125Y-128803992D01*
X189083742Y-128653612D01*
X189167389Y-128497120D01*
X189279956Y-128359956D01*
X189417120Y-128247389D01*
X189573612Y-128163742D01*
X189743409Y-128112235D01*
X189743412Y-128112234D01*
X189875751Y-128099200D01*
X189964249Y-128099200D01*
X190096588Y-128112234D01*
X190096588Y-128112234D01*
G37*
G36*
X187556588Y-128112234D02*
X187556591Y-128112235D01*
X187726388Y-128163742D01*
X187882880Y-128247389D01*
X188020044Y-128359956D01*
X188132611Y-128497120D01*
X188216258Y-128653612D01*
X188261875Y-128803992D01*
X188267766Y-128823412D01*
X188285158Y-129000000D01*
X188267766Y-129176588D01*
X188267765Y-129176591D01*
X188216258Y-129346388D01*
X188132611Y-129502880D01*
X188020044Y-129640044D01*
X187882880Y-129752611D01*
X187726388Y-129836258D01*
X187576008Y-129881875D01*
X187556588Y-129887766D01*
X187424249Y-129900800D01*
X187335751Y-129900800D01*
X187203412Y-129887766D01*
X187183992Y-129881875D01*
X187033612Y-129836258D01*
X186877120Y-129752611D01*
X186739956Y-129640044D01*
X186627389Y-129502880D01*
X186543742Y-129346388D01*
X186492235Y-129176591D01*
X186492234Y-129176588D01*
X186474842Y-129000000D01*
X186492234Y-128823412D01*
X186498125Y-128803992D01*
X186543742Y-128653612D01*
X186627389Y-128497120D01*
X186739956Y-128359956D01*
X186877120Y-128247389D01*
X187033612Y-128163742D01*
X187203409Y-128112235D01*
X187203412Y-128112234D01*
X187335751Y-128099200D01*
X187424249Y-128099200D01*
X187556588Y-128112234D01*
X187556588Y-128112234D01*
G37*
M02*
