G04 #@! TF.GenerationSoftware,KiCad,Pcbnew,(2018-02-15 revision 29b28de31)-makepkg*
G04 #@! TF.CreationDate,2018-04-28T16:50:53+09:30*
G04 #@! TF.ProjectId,short_oled_ssd1306,73686F72745F6F6C65645F7373643133,rev?*
G04 #@! TF.SameCoordinates,Original*
G04 #@! TF.FileFunction,Copper,L1,Top,Signal*
G04 #@! TF.FilePolarity,Positive*
%FSLAX46Y46*%
G04 Gerber Fmt 4.6, Leading zero omitted, Abs format (unit mm)*
G04 Created by KiCad (PCBNEW (2018-02-15 revision 29b28de31)-makepkg) date 04/28/18 16:50:53*
%MOMM*%
%LPD*%
G01*
G04 APERTURE LIST*
%ADD10C,0.200000*%
%ADD11C,0.254000*%
%ADD12O,1.700000X1.700000*%
%ADD13R,1.700000X1.700000*%
%ADD14R,1.016000X1.016000*%
%ADD15R,0.400000X2.540000*%
%ADD16C,0.965200*%
%ADD17C,0.300000*%
G04 APERTURE END LIST*
D10*
X199500000Y-131000000D02*
X203000000Y-131000000D01*
X199500000Y-127500000D02*
X199500000Y-131000000D01*
X183000000Y-131000000D02*
X183000000Y-127500000D01*
X179500000Y-131000000D02*
X183000000Y-131000000D01*
D11*
X179500000Y-131000000D02*
X179500000Y-146500000D01*
X203000000Y-131000000D02*
X203000000Y-146500000D01*
X183000000Y-127500000D02*
X199500000Y-127500000D01*
X179500000Y-146500000D02*
X203000000Y-146500000D01*
D12*
X187380000Y-129000000D03*
X189920000Y-129000000D03*
X192460000Y-129000000D03*
D13*
X195000000Y-129000000D03*
D14*
X196611000Y-134500000D03*
X198389000Y-134500000D03*
X182889000Y-136500000D03*
X181111000Y-136500000D03*
X182889000Y-138500000D03*
X181111000Y-138500000D03*
X186611000Y-138500000D03*
X188389000Y-138500000D03*
X196611000Y-136500000D03*
X198389000Y-136500000D03*
X196611000Y-138500000D03*
X198389000Y-138500000D03*
D15*
X191500000Y-144516000D03*
X192200000Y-144516000D03*
X192900000Y-144516000D03*
X193600000Y-144516000D03*
X194300000Y-144516000D03*
X195000000Y-144516000D03*
X195700000Y-144516000D03*
X196400000Y-144516000D03*
X197100000Y-144516000D03*
X197800000Y-144516000D03*
X198500000Y-144516000D03*
X199200000Y-144516000D03*
X199900000Y-144516000D03*
X200600000Y-144516000D03*
X201300000Y-144516000D03*
X181000000Y-144516000D03*
X181700000Y-144516000D03*
X182400000Y-144516000D03*
X183100000Y-144516000D03*
X183800000Y-144516000D03*
X184500000Y-144516000D03*
X185200000Y-144516000D03*
X185900000Y-144516000D03*
X186600000Y-144516000D03*
X187300000Y-144516000D03*
X188000000Y-144516000D03*
X188700000Y-144516000D03*
X189400000Y-144516000D03*
X190100000Y-144516000D03*
X190800000Y-144516000D03*
D14*
X196611000Y-132500000D03*
X198389000Y-132500000D03*
X186611000Y-136500000D03*
X188389000Y-136500000D03*
X181111000Y-132500000D03*
X182889000Y-132500000D03*
X182889000Y-134500000D03*
X181111000Y-134500000D03*
D16*
X189905556Y-140137718D03*
X201500000Y-141000000D03*
X201500000Y-138500000D03*
X201500000Y-136000000D03*
X201500000Y-133500000D03*
X185366380Y-136500000D03*
X182226789Y-142382313D03*
X186183882Y-142013390D03*
X186828047Y-134895632D03*
X187808628Y-142173794D03*
X185499994Y-132500000D03*
X191308674Y-138191318D03*
X184000000Y-142000000D03*
X193278700Y-139596200D03*
X197270000Y-142489900D03*
X185002554Y-139887264D03*
X185477353Y-134378120D03*
X183454752Y-140909503D03*
X192067500Y-134741100D03*
D17*
X193600000Y-142800000D02*
X193600000Y-144516000D01*
X192900000Y-142800000D02*
X192900000Y-142513609D01*
X192900000Y-144516000D02*
X192900000Y-142800000D01*
X192900000Y-142800000D02*
X193600000Y-142800000D01*
X192900000Y-142513609D02*
X191149393Y-140763002D01*
X191149393Y-140763002D02*
X190530840Y-140763002D01*
X190530840Y-140763002D02*
X189905556Y-140137718D01*
X191500000Y-143200000D02*
X191246000Y-142946000D01*
X191246000Y-142946000D02*
X190300000Y-142946000D01*
X191500000Y-144516000D02*
X191500000Y-143200000D01*
X190100000Y-144516000D02*
X190100000Y-143146000D01*
X190100000Y-143146000D02*
X190300000Y-142946000D01*
X186600000Y-142900000D02*
X185634345Y-142900000D01*
X187300000Y-142900000D02*
X187300000Y-144516000D01*
X186611000Y-138662500D02*
X187573660Y-139625160D01*
X189392998Y-139625160D02*
X189905556Y-140137718D01*
X191677598Y-139386602D02*
X191250101Y-139386602D01*
X190113398Y-132647502D02*
X191174300Y-131586600D01*
X191250101Y-139386602D02*
X190113398Y-138249899D01*
X192385900Y-138678300D02*
X191677598Y-139386602D01*
X186014118Y-140733182D02*
X185200000Y-141547300D01*
X188463675Y-140733182D02*
X186014118Y-140733182D01*
X190300000Y-142569507D02*
X188463675Y-140733182D01*
X190300000Y-142946000D02*
X190300000Y-142569507D01*
X190800000Y-143446000D02*
X190300000Y-142946000D01*
X190800000Y-144516000D02*
X190800000Y-143446000D01*
X187573660Y-139625160D02*
X189392998Y-139625160D01*
X190113398Y-138249899D02*
X190113398Y-132647502D01*
X186600000Y-142900000D02*
X187300000Y-142900000D01*
X186600000Y-144516000D02*
X186600000Y-142900000D01*
X185634345Y-142900000D02*
X185900000Y-143165655D01*
X185900000Y-143165655D02*
X185900000Y-144516000D01*
X185254000Y-142800000D02*
X185354000Y-142900000D01*
X185200000Y-142800000D02*
X185254000Y-142800000D01*
X185354000Y-142900000D02*
X185634345Y-142900000D01*
X185200000Y-142800000D02*
X185200000Y-141547300D01*
X185200000Y-144516000D02*
X185200000Y-142800000D01*
X184500000Y-142800000D02*
X185200000Y-142800000D01*
X184500000Y-144516000D02*
X184500000Y-142800000D01*
X201500000Y-138500000D02*
X201500000Y-141000000D01*
X201500000Y-136000000D02*
X201500000Y-138500000D01*
X201500000Y-133500000D02*
X201500000Y-136000000D01*
X198389000Y-132500000D02*
X200500000Y-132500000D01*
X200500000Y-132500000D02*
X201500000Y-133500000D01*
X200600000Y-141623300D02*
X198389000Y-139412300D01*
X200600000Y-144516000D02*
X200600000Y-141623300D01*
X198389000Y-138500000D02*
X198389000Y-139412300D01*
X196611000Y-138500000D02*
X196611000Y-139412300D01*
X197014200Y-139412300D02*
X196611000Y-139412300D01*
X199900000Y-142298100D02*
X197014200Y-139412300D01*
X199900000Y-144516000D02*
X199900000Y-142298100D01*
X199200000Y-144516000D02*
X199200000Y-142381900D01*
X196611000Y-136500000D02*
X196611000Y-137412300D01*
X196040800Y-137412300D02*
X196611000Y-137412300D01*
X195698700Y-137754400D02*
X196040800Y-137412300D01*
X195698700Y-139340400D02*
X195698700Y-137754400D01*
X197407000Y-141048700D02*
X195698700Y-139340400D01*
X197866800Y-141048700D02*
X197407000Y-141048700D01*
X199200000Y-142381900D02*
X197866800Y-141048700D01*
X197476600Y-135587600D02*
X198389000Y-136500000D01*
X195877200Y-135587600D02*
X197476600Y-135587600D01*
X195142400Y-136322400D02*
X195877200Y-135587600D01*
X195142400Y-139568200D02*
X195142400Y-136322400D01*
X197177200Y-141603000D02*
X195142400Y-139568200D01*
X197637300Y-141603000D02*
X197177200Y-141603000D01*
X198500000Y-142465700D02*
X197637300Y-141603000D01*
X198500000Y-144516000D02*
X198500000Y-142465700D01*
X183880321Y-140022902D02*
X183029183Y-140022902D01*
X185200000Y-141547300D02*
X184341353Y-140688653D01*
X184341353Y-140688653D02*
X184341353Y-140483934D01*
X184341353Y-140483934D02*
X183880321Y-140022902D01*
X181340187Y-141932113D02*
X181340187Y-142807883D01*
X183029183Y-140022902D02*
X181845800Y-141206285D01*
X181845800Y-141206285D02*
X181845800Y-141426500D01*
X181340187Y-142807883D02*
X181700000Y-143167696D01*
X181845800Y-141426500D02*
X181340187Y-141932113D01*
X181700000Y-143167696D02*
X181700000Y-144516000D01*
X186611000Y-138500000D02*
X186611000Y-138662500D01*
X183963800Y-138662500D02*
X183801300Y-138500000D01*
X186611000Y-138662500D02*
X183963800Y-138662500D01*
X198389000Y-134500000D02*
X198389000Y-132500000D01*
X189920000Y-129000000D02*
X191174300Y-129000000D01*
X182889000Y-136500000D02*
X182889000Y-137412300D01*
X182889000Y-138500000D02*
X182889000Y-137412300D01*
X182889000Y-138500000D02*
X183801300Y-138500000D01*
X180567300Y-137412300D02*
X182889000Y-137412300D01*
X180198600Y-137781000D02*
X180567300Y-137412300D01*
X180198600Y-139779300D02*
X180198600Y-137781000D01*
X181845800Y-141426500D02*
X180198600Y-139779300D01*
X195000000Y-144516000D02*
X195000000Y-142571500D01*
X197475600Y-131586600D02*
X198389000Y-132500000D01*
X191174300Y-131586600D02*
X197475600Y-131586600D01*
X191174300Y-129000000D02*
X191174300Y-131586600D01*
X192385900Y-139957400D02*
X192385900Y-138678300D01*
X195000000Y-142571500D02*
X192385900Y-139957400D01*
X196383100Y-144499100D02*
X196400000Y-144516000D01*
X196383100Y-141757700D02*
X196383100Y-144499100D01*
X194312500Y-139687100D02*
X196383100Y-141757700D01*
X194312500Y-139312800D02*
X194312500Y-139687100D01*
X193678000Y-138678300D02*
X194312500Y-139312800D01*
X192385900Y-138678300D02*
X193678000Y-138678300D01*
X181285599Y-135517401D02*
X184383781Y-135517401D01*
X184383781Y-135517401D02*
X185366380Y-136500000D01*
X181111000Y-136500000D02*
X181111000Y-135692000D01*
X181111000Y-135692000D02*
X181285599Y-135517401D01*
X182400000Y-144516000D02*
X182400000Y-142555524D01*
X182400000Y-142555524D02*
X182226789Y-142382313D01*
X188234197Y-141287193D02*
X186910079Y-141287193D01*
X186910079Y-141287193D02*
X186183882Y-142013390D01*
X189400000Y-142452996D02*
X188234197Y-141287193D01*
X189400000Y-144516000D02*
X189400000Y-142452996D01*
X186611000Y-135112679D02*
X186828047Y-134895632D01*
X186611000Y-136500000D02*
X186611000Y-135112679D01*
X188700000Y-144516000D02*
X188700000Y-143065166D01*
X188700000Y-143065166D02*
X187808628Y-142173794D01*
X188000000Y-144516000D02*
X188000000Y-142365166D01*
X188000000Y-142365166D02*
X187808628Y-142173794D01*
X182889000Y-132500000D02*
X185499994Y-132500000D01*
X196611000Y-132500000D02*
X192996430Y-132500000D01*
X190826075Y-137708719D02*
X191308674Y-138191318D01*
X190826075Y-134670355D02*
X190826075Y-137708719D01*
X192996430Y-132500000D02*
X190826075Y-134670355D01*
X183667409Y-142332591D02*
X183800000Y-142465182D01*
X183800000Y-142465182D02*
X183800000Y-144516000D01*
X184000000Y-142000000D02*
X183667409Y-142332591D01*
X194300000Y-144516000D02*
X194300000Y-142716511D01*
X194300000Y-142716511D02*
X191524102Y-139940613D01*
X191524102Y-139940613D02*
X191020623Y-139940613D01*
X191020623Y-139940613D02*
X188492310Y-137412300D01*
X188492310Y-137412300D02*
X188389000Y-137412300D01*
X188389000Y-135144415D02*
X186736104Y-133491519D01*
X181181981Y-133491519D02*
X181111000Y-133562500D01*
X188389000Y-136500000D02*
X188389000Y-135144415D01*
X186736104Y-133491519D02*
X181181981Y-133491519D01*
X181111000Y-131692000D02*
X181298990Y-131504010D01*
X183208767Y-131504010D02*
X183504010Y-131208767D01*
X181111000Y-132500000D02*
X181111000Y-131692000D01*
X185187815Y-129000000D02*
X187380000Y-129000000D01*
X183504010Y-131208767D02*
X183504010Y-130683805D01*
X183504010Y-130683805D02*
X185187815Y-129000000D01*
X181298990Y-131504010D02*
X183208767Y-131504010D01*
X181111000Y-134500000D02*
X181111000Y-133562500D01*
X181111000Y-133562500D02*
X181111000Y-132500000D01*
X188389000Y-136500000D02*
X188389000Y-137412300D01*
X188389000Y-138500000D02*
X188389000Y-137412300D01*
X195700000Y-144516000D02*
X195700000Y-142017500D01*
X193278700Y-139596200D02*
X195700000Y-142017500D01*
X197621800Y-142841700D02*
X197270000Y-142489900D01*
X197800000Y-142841700D02*
X197621800Y-142841700D01*
X197800000Y-144516000D02*
X197800000Y-142841700D01*
X190587002Y-141333002D02*
X189846984Y-141333002D01*
X184584181Y-139468891D02*
X185002554Y-139887264D01*
X181111000Y-138500000D02*
X181111000Y-139308000D01*
X192200000Y-142946000D02*
X190587002Y-141333002D01*
X189846984Y-141333002D02*
X188693153Y-140179171D01*
X181111000Y-139308000D02*
X181271891Y-139468891D01*
X188693153Y-140179171D02*
X185976960Y-140179171D01*
X185976960Y-140179171D02*
X185685053Y-139887264D01*
X181271891Y-139468891D02*
X184584181Y-139468891D01*
X185685053Y-139887264D02*
X185002554Y-139887264D01*
X192200000Y-144516000D02*
X192200000Y-142946000D01*
X185355473Y-134500000D02*
X185477353Y-134378120D01*
X182889000Y-134500000D02*
X185355473Y-134500000D01*
X183113399Y-141250856D02*
X183454752Y-140909503D01*
X183100000Y-144516000D02*
X183100000Y-142946000D01*
X183113399Y-142932601D02*
X183113399Y-141250856D01*
X183100000Y-142946000D02*
X183113399Y-142932601D01*
X192308600Y-134500000D02*
X192067500Y-134741100D01*
X196611000Y-134500000D02*
X192308600Y-134500000D01*
D11*
G36*
X198968201Y-130947620D02*
X198957782Y-131000000D01*
X198999056Y-131207498D01*
X199116594Y-131383406D01*
X199164766Y-131415593D01*
X199023309Y-131357000D01*
X198674750Y-131357000D01*
X198516000Y-131515750D01*
X198516000Y-132373000D01*
X199373250Y-132373000D01*
X199532000Y-132214250D01*
X199532000Y-131865690D01*
X199435327Y-131632301D01*
X199306817Y-131503791D01*
X199447625Y-131531800D01*
X199447626Y-131531800D01*
X199500000Y-131542218D01*
X199552375Y-131531800D01*
X202441200Y-131531800D01*
X202441201Y-142873000D01*
X201718984Y-142873000D01*
X201668480Y-142839254D01*
X201500000Y-142805741D01*
X201181800Y-142805741D01*
X201181800Y-141680595D01*
X201193197Y-141623299D01*
X201181800Y-141566003D01*
X201181800Y-141565999D01*
X201148043Y-141396293D01*
X201019454Y-141203846D01*
X200970877Y-141171388D01*
X199154652Y-139355163D01*
X199208310Y-139319310D01*
X199303746Y-139176480D01*
X199337259Y-139008000D01*
X199337259Y-137992000D01*
X199303746Y-137823520D01*
X199208310Y-137680690D01*
X199065480Y-137585254D01*
X198897000Y-137551741D01*
X197881000Y-137551741D01*
X197712520Y-137585254D01*
X197569690Y-137680690D01*
X197500000Y-137784988D01*
X197430310Y-137680690D01*
X197287480Y-137585254D01*
X197174274Y-137562736D01*
X197192800Y-137469601D01*
X197200260Y-137432095D01*
X197287480Y-137414746D01*
X197430310Y-137319310D01*
X197500000Y-137215012D01*
X197569690Y-137319310D01*
X197712520Y-137414746D01*
X197881000Y-137448259D01*
X198897000Y-137448259D01*
X199065480Y-137414746D01*
X199208310Y-137319310D01*
X199303746Y-137176480D01*
X199337259Y-137008000D01*
X199337259Y-135992000D01*
X199303746Y-135823520D01*
X199208310Y-135680690D01*
X199102692Y-135610118D01*
X199256698Y-135546327D01*
X199435327Y-135367699D01*
X199532000Y-135134310D01*
X199532000Y-134785750D01*
X199373250Y-134627000D01*
X198516000Y-134627000D01*
X198516000Y-134647000D01*
X198262000Y-134647000D01*
X198262000Y-134627000D01*
X198242000Y-134627000D01*
X198242000Y-134373000D01*
X198262000Y-134373000D01*
X198262000Y-133515750D01*
X198246250Y-133500000D01*
X198262000Y-133484250D01*
X198262000Y-132627000D01*
X198516000Y-132627000D01*
X198516000Y-133484250D01*
X198531750Y-133500000D01*
X198516000Y-133515750D01*
X198516000Y-134373000D01*
X199373250Y-134373000D01*
X199532000Y-134214250D01*
X199532000Y-133865690D01*
X199435327Y-133632301D01*
X199303025Y-133500000D01*
X199435327Y-133367699D01*
X199532000Y-133134310D01*
X199532000Y-132785750D01*
X199373250Y-132627000D01*
X198516000Y-132627000D01*
X198262000Y-132627000D01*
X198242000Y-132627000D01*
X198242000Y-132373000D01*
X198262000Y-132373000D01*
X198262000Y-131515750D01*
X198103250Y-131357000D01*
X197754691Y-131357000D01*
X197521302Y-131453673D01*
X197348768Y-131626206D01*
X197287480Y-131585254D01*
X197119000Y-131551741D01*
X196103000Y-131551741D01*
X195934520Y-131585254D01*
X195791690Y-131680690D01*
X195696254Y-131823520D01*
X195677421Y-131918200D01*
X193053725Y-131918200D01*
X192996429Y-131906803D01*
X192939133Y-131918200D01*
X192939129Y-131918200D01*
X192769423Y-131951957D01*
X192769421Y-131951958D01*
X192769422Y-131951958D01*
X192625552Y-132048088D01*
X192625550Y-132048090D01*
X192576976Y-132080546D01*
X192544520Y-132129121D01*
X190455201Y-134218441D01*
X190406621Y-134250901D01*
X190278032Y-134443349D01*
X190244275Y-134613055D01*
X190244275Y-134613058D01*
X190232878Y-134670355D01*
X190244275Y-134727652D01*
X190244276Y-137651417D01*
X190232878Y-137708719D01*
X190278032Y-137935725D01*
X190297133Y-137964311D01*
X190394274Y-138109693D01*
X190394274Y-138373203D01*
X190477905Y-138575106D01*
X189213837Y-137311039D01*
X189303746Y-137176480D01*
X189337259Y-137008000D01*
X189337259Y-135992000D01*
X189303746Y-135823520D01*
X189208310Y-135680690D01*
X189065480Y-135585254D01*
X188970800Y-135566421D01*
X188970800Y-135201712D01*
X188982197Y-135144415D01*
X188970800Y-135087118D01*
X188970800Y-135087114D01*
X188937043Y-134917408D01*
X188808454Y-134724961D01*
X188759876Y-134692503D01*
X187188018Y-133120645D01*
X187155558Y-133072065D01*
X186963111Y-132943476D01*
X186793405Y-132909719D01*
X186793401Y-132909719D01*
X186736104Y-132898322D01*
X186678807Y-132909719D01*
X186320022Y-132909719D01*
X186414394Y-132681885D01*
X186414394Y-132318115D01*
X186275185Y-131982034D01*
X186017960Y-131724809D01*
X185681879Y-131585600D01*
X185318109Y-131585600D01*
X184982028Y-131724809D01*
X184788637Y-131918200D01*
X183822579Y-131918200D01*
X183803746Y-131823520D01*
X183767016Y-131768549D01*
X183874884Y-131660681D01*
X183923464Y-131628221D01*
X184052053Y-131435774D01*
X184085810Y-131266068D01*
X184085810Y-131266064D01*
X184097207Y-131208767D01*
X184085810Y-131151470D01*
X184085810Y-130924793D01*
X185428804Y-129581800D01*
X186227140Y-129581800D01*
X186455874Y-129924126D01*
X186879867Y-130207428D01*
X187253759Y-130281800D01*
X187506241Y-130281800D01*
X187880133Y-130207428D01*
X188304126Y-129924126D01*
X188562972Y-129536734D01*
X188724817Y-129881358D01*
X189153076Y-130271645D01*
X189563110Y-130441476D01*
X189793000Y-130320155D01*
X189793000Y-129127000D01*
X189773000Y-129127000D01*
X189773000Y-128873000D01*
X189793000Y-128873000D01*
X189793000Y-128853000D01*
X190047000Y-128853000D01*
X190047000Y-128873000D01*
X190067000Y-128873000D01*
X190067000Y-129127000D01*
X190047000Y-129127000D01*
X190047000Y-130320155D01*
X190276890Y-130441476D01*
X190686924Y-130271645D01*
X191115183Y-129881358D01*
X191277028Y-129536734D01*
X191535874Y-129924126D01*
X191959867Y-130207428D01*
X192333759Y-130281800D01*
X192586241Y-130281800D01*
X192960133Y-130207428D01*
X193384126Y-129924126D01*
X193667428Y-129500133D01*
X193709741Y-129287412D01*
X193709741Y-129850000D01*
X193743254Y-130018480D01*
X193838690Y-130161310D01*
X193981520Y-130256746D01*
X194150000Y-130290259D01*
X195850000Y-130290259D01*
X196018480Y-130256746D01*
X196161310Y-130161310D01*
X196256746Y-130018480D01*
X196290259Y-129850000D01*
X196290259Y-128150000D01*
X196272118Y-128058800D01*
X198968200Y-128058800D01*
X198968201Y-130947620D01*
X198968201Y-130947620D01*
G37*
X198968201Y-130947620D02*
X198957782Y-131000000D01*
X198999056Y-131207498D01*
X199116594Y-131383406D01*
X199164766Y-131415593D01*
X199023309Y-131357000D01*
X198674750Y-131357000D01*
X198516000Y-131515750D01*
X198516000Y-132373000D01*
X199373250Y-132373000D01*
X199532000Y-132214250D01*
X199532000Y-131865690D01*
X199435327Y-131632301D01*
X199306817Y-131503791D01*
X199447625Y-131531800D01*
X199447626Y-131531800D01*
X199500000Y-131542218D01*
X199552375Y-131531800D01*
X202441200Y-131531800D01*
X202441201Y-142873000D01*
X201718984Y-142873000D01*
X201668480Y-142839254D01*
X201500000Y-142805741D01*
X201181800Y-142805741D01*
X201181800Y-141680595D01*
X201193197Y-141623299D01*
X201181800Y-141566003D01*
X201181800Y-141565999D01*
X201148043Y-141396293D01*
X201019454Y-141203846D01*
X200970877Y-141171388D01*
X199154652Y-139355163D01*
X199208310Y-139319310D01*
X199303746Y-139176480D01*
X199337259Y-139008000D01*
X199337259Y-137992000D01*
X199303746Y-137823520D01*
X199208310Y-137680690D01*
X199065480Y-137585254D01*
X198897000Y-137551741D01*
X197881000Y-137551741D01*
X197712520Y-137585254D01*
X197569690Y-137680690D01*
X197500000Y-137784988D01*
X197430310Y-137680690D01*
X197287480Y-137585254D01*
X197174274Y-137562736D01*
X197192800Y-137469601D01*
X197200260Y-137432095D01*
X197287480Y-137414746D01*
X197430310Y-137319310D01*
X197500000Y-137215012D01*
X197569690Y-137319310D01*
X197712520Y-137414746D01*
X197881000Y-137448259D01*
X198897000Y-137448259D01*
X199065480Y-137414746D01*
X199208310Y-137319310D01*
X199303746Y-137176480D01*
X199337259Y-137008000D01*
X199337259Y-135992000D01*
X199303746Y-135823520D01*
X199208310Y-135680690D01*
X199102692Y-135610118D01*
X199256698Y-135546327D01*
X199435327Y-135367699D01*
X199532000Y-135134310D01*
X199532000Y-134785750D01*
X199373250Y-134627000D01*
X198516000Y-134627000D01*
X198516000Y-134647000D01*
X198262000Y-134647000D01*
X198262000Y-134627000D01*
X198242000Y-134627000D01*
X198242000Y-134373000D01*
X198262000Y-134373000D01*
X198262000Y-133515750D01*
X198246250Y-133500000D01*
X198262000Y-133484250D01*
X198262000Y-132627000D01*
X198516000Y-132627000D01*
X198516000Y-133484250D01*
X198531750Y-133500000D01*
X198516000Y-133515750D01*
X198516000Y-134373000D01*
X199373250Y-134373000D01*
X199532000Y-134214250D01*
X199532000Y-133865690D01*
X199435327Y-133632301D01*
X199303025Y-133500000D01*
X199435327Y-133367699D01*
X199532000Y-133134310D01*
X199532000Y-132785750D01*
X199373250Y-132627000D01*
X198516000Y-132627000D01*
X198262000Y-132627000D01*
X198242000Y-132627000D01*
X198242000Y-132373000D01*
X198262000Y-132373000D01*
X198262000Y-131515750D01*
X198103250Y-131357000D01*
X197754691Y-131357000D01*
X197521302Y-131453673D01*
X197348768Y-131626206D01*
X197287480Y-131585254D01*
X197119000Y-131551741D01*
X196103000Y-131551741D01*
X195934520Y-131585254D01*
X195791690Y-131680690D01*
X195696254Y-131823520D01*
X195677421Y-131918200D01*
X193053725Y-131918200D01*
X192996429Y-131906803D01*
X192939133Y-131918200D01*
X192939129Y-131918200D01*
X192769423Y-131951957D01*
X192769421Y-131951958D01*
X192769422Y-131951958D01*
X192625552Y-132048088D01*
X192625550Y-132048090D01*
X192576976Y-132080546D01*
X192544520Y-132129121D01*
X190455201Y-134218441D01*
X190406621Y-134250901D01*
X190278032Y-134443349D01*
X190244275Y-134613055D01*
X190244275Y-134613058D01*
X190232878Y-134670355D01*
X190244275Y-134727652D01*
X190244276Y-137651417D01*
X190232878Y-137708719D01*
X190278032Y-137935725D01*
X190297133Y-137964311D01*
X190394274Y-138109693D01*
X190394274Y-138373203D01*
X190477905Y-138575106D01*
X189213837Y-137311039D01*
X189303746Y-137176480D01*
X189337259Y-137008000D01*
X189337259Y-135992000D01*
X189303746Y-135823520D01*
X189208310Y-135680690D01*
X189065480Y-135585254D01*
X188970800Y-135566421D01*
X188970800Y-135201712D01*
X188982197Y-135144415D01*
X188970800Y-135087118D01*
X188970800Y-135087114D01*
X188937043Y-134917408D01*
X188808454Y-134724961D01*
X188759876Y-134692503D01*
X187188018Y-133120645D01*
X187155558Y-133072065D01*
X186963111Y-132943476D01*
X186793405Y-132909719D01*
X186793401Y-132909719D01*
X186736104Y-132898322D01*
X186678807Y-132909719D01*
X186320022Y-132909719D01*
X186414394Y-132681885D01*
X186414394Y-132318115D01*
X186275185Y-131982034D01*
X186017960Y-131724809D01*
X185681879Y-131585600D01*
X185318109Y-131585600D01*
X184982028Y-131724809D01*
X184788637Y-131918200D01*
X183822579Y-131918200D01*
X183803746Y-131823520D01*
X183767016Y-131768549D01*
X183874884Y-131660681D01*
X183923464Y-131628221D01*
X184052053Y-131435774D01*
X184085810Y-131266068D01*
X184085810Y-131266064D01*
X184097207Y-131208767D01*
X184085810Y-131151470D01*
X184085810Y-130924793D01*
X185428804Y-129581800D01*
X186227140Y-129581800D01*
X186455874Y-129924126D01*
X186879867Y-130207428D01*
X187253759Y-130281800D01*
X187506241Y-130281800D01*
X187880133Y-130207428D01*
X188304126Y-129924126D01*
X188562972Y-129536734D01*
X188724817Y-129881358D01*
X189153076Y-130271645D01*
X189563110Y-130441476D01*
X189793000Y-130320155D01*
X189793000Y-129127000D01*
X189773000Y-129127000D01*
X189773000Y-128873000D01*
X189793000Y-128873000D01*
X189793000Y-128853000D01*
X190047000Y-128853000D01*
X190047000Y-128873000D01*
X190067000Y-128873000D01*
X190067000Y-129127000D01*
X190047000Y-129127000D01*
X190047000Y-130320155D01*
X190276890Y-130441476D01*
X190686924Y-130271645D01*
X191115183Y-129881358D01*
X191277028Y-129536734D01*
X191535874Y-129924126D01*
X191959867Y-130207428D01*
X192333759Y-130281800D01*
X192586241Y-130281800D01*
X192960133Y-130207428D01*
X193384126Y-129924126D01*
X193667428Y-129500133D01*
X193709741Y-129287412D01*
X193709741Y-129850000D01*
X193743254Y-130018480D01*
X193838690Y-130161310D01*
X193981520Y-130256746D01*
X194150000Y-130290259D01*
X195850000Y-130290259D01*
X196018480Y-130256746D01*
X196161310Y-130161310D01*
X196256746Y-130018480D01*
X196290259Y-129850000D01*
X196290259Y-128150000D01*
X196272118Y-128058800D01*
X198968200Y-128058800D01*
X198968201Y-130947620D01*
G36*
X180543341Y-131563608D02*
X180434520Y-131585254D01*
X180291690Y-131680690D01*
X180196254Y-131823520D01*
X180162741Y-131992000D01*
X180162741Y-133008000D01*
X180196254Y-133176480D01*
X180291690Y-133319310D01*
X180434520Y-133414746D01*
X180529200Y-133433579D01*
X180529200Y-133505203D01*
X180517803Y-133562500D01*
X180518987Y-133568452D01*
X180434520Y-133585254D01*
X180291690Y-133680690D01*
X180196254Y-133823520D01*
X180162741Y-133992000D01*
X180162741Y-135008000D01*
X180196254Y-135176480D01*
X180291690Y-135319310D01*
X180434520Y-135414746D01*
X180577525Y-135443192D01*
X180562957Y-135464994D01*
X180549602Y-135532133D01*
X180543341Y-135563608D01*
X180434520Y-135585254D01*
X180291690Y-135680690D01*
X180196254Y-135823520D01*
X180162741Y-135992000D01*
X180162741Y-137008000D01*
X180196254Y-137176480D01*
X180291690Y-137319310D01*
X180434520Y-137414746D01*
X180603000Y-137448259D01*
X181619000Y-137448259D01*
X181787480Y-137414746D01*
X181848768Y-137373794D01*
X181974975Y-137500000D01*
X181848768Y-137626206D01*
X181787480Y-137585254D01*
X181619000Y-137551741D01*
X180603000Y-137551741D01*
X180434520Y-137585254D01*
X180291690Y-137680690D01*
X180196254Y-137823520D01*
X180162741Y-137992000D01*
X180162741Y-139008000D01*
X180196254Y-139176480D01*
X180291690Y-139319310D01*
X180434520Y-139414746D01*
X180543342Y-139436392D01*
X180562957Y-139535006D01*
X180646647Y-139660257D01*
X180691547Y-139727454D01*
X180740124Y-139759912D01*
X180819977Y-139839765D01*
X180852437Y-139888345D01*
X181044884Y-140016934D01*
X181214590Y-140050691D01*
X181214595Y-140050691D01*
X181271890Y-140062088D01*
X181329186Y-140050691D01*
X183138665Y-140050691D01*
X182936786Y-140134312D01*
X182679561Y-140391537D01*
X182540352Y-140727618D01*
X182540352Y-141091388D01*
X182548168Y-141110258D01*
X182520202Y-141250856D01*
X182531600Y-141308158D01*
X182531600Y-141518830D01*
X182408674Y-141467913D01*
X182044904Y-141467913D01*
X181708823Y-141607122D01*
X181451598Y-141864347D01*
X181312389Y-142200428D01*
X181312389Y-142564198D01*
X181337913Y-142625820D01*
X181140302Y-142707673D01*
X181042233Y-142805741D01*
X180800000Y-142805741D01*
X180631520Y-142839254D01*
X180581016Y-142873000D01*
X180058800Y-142873000D01*
X180058800Y-131531800D01*
X180549669Y-131531800D01*
X180543341Y-131563608D01*
X180543341Y-131563608D01*
G37*
X180543341Y-131563608D02*
X180434520Y-131585254D01*
X180291690Y-131680690D01*
X180196254Y-131823520D01*
X180162741Y-131992000D01*
X180162741Y-133008000D01*
X180196254Y-133176480D01*
X180291690Y-133319310D01*
X180434520Y-133414746D01*
X180529200Y-133433579D01*
X180529200Y-133505203D01*
X180517803Y-133562500D01*
X180518987Y-133568452D01*
X180434520Y-133585254D01*
X180291690Y-133680690D01*
X180196254Y-133823520D01*
X180162741Y-133992000D01*
X180162741Y-135008000D01*
X180196254Y-135176480D01*
X180291690Y-135319310D01*
X180434520Y-135414746D01*
X180577525Y-135443192D01*
X180562957Y-135464994D01*
X180549602Y-135532133D01*
X180543341Y-135563608D01*
X180434520Y-135585254D01*
X180291690Y-135680690D01*
X180196254Y-135823520D01*
X180162741Y-135992000D01*
X180162741Y-137008000D01*
X180196254Y-137176480D01*
X180291690Y-137319310D01*
X180434520Y-137414746D01*
X180603000Y-137448259D01*
X181619000Y-137448259D01*
X181787480Y-137414746D01*
X181848768Y-137373794D01*
X181974975Y-137500000D01*
X181848768Y-137626206D01*
X181787480Y-137585254D01*
X181619000Y-137551741D01*
X180603000Y-137551741D01*
X180434520Y-137585254D01*
X180291690Y-137680690D01*
X180196254Y-137823520D01*
X180162741Y-137992000D01*
X180162741Y-139008000D01*
X180196254Y-139176480D01*
X180291690Y-139319310D01*
X180434520Y-139414746D01*
X180543342Y-139436392D01*
X180562957Y-139535006D01*
X180646647Y-139660257D01*
X180691547Y-139727454D01*
X180740124Y-139759912D01*
X180819977Y-139839765D01*
X180852437Y-139888345D01*
X181044884Y-140016934D01*
X181214590Y-140050691D01*
X181214595Y-140050691D01*
X181271890Y-140062088D01*
X181329186Y-140050691D01*
X183138665Y-140050691D01*
X182936786Y-140134312D01*
X182679561Y-140391537D01*
X182540352Y-140727618D01*
X182540352Y-141091388D01*
X182548168Y-141110258D01*
X182520202Y-141250856D01*
X182531600Y-141308158D01*
X182531600Y-141518830D01*
X182408674Y-141467913D01*
X182044904Y-141467913D01*
X181708823Y-141607122D01*
X181451598Y-141864347D01*
X181312389Y-142200428D01*
X181312389Y-142564198D01*
X181337913Y-142625820D01*
X181140302Y-142707673D01*
X181042233Y-142805741D01*
X180800000Y-142805741D01*
X180631520Y-142839254D01*
X180581016Y-142873000D01*
X180058800Y-142873000D01*
X180058800Y-131531800D01*
X180549669Y-131531800D01*
X180543341Y-131563608D01*
G36*
X193096815Y-140510600D02*
X193370312Y-140510600D01*
X195118201Y-142258491D01*
X195118201Y-142751549D01*
X195100000Y-142769750D01*
X195100000Y-142873000D01*
X194900000Y-142873000D01*
X194900000Y-142769750D01*
X194885493Y-142755243D01*
X194893197Y-142716511D01*
X194881800Y-142659214D01*
X194881800Y-142659210D01*
X194848043Y-142489504D01*
X194719454Y-142297057D01*
X194670877Y-142264599D01*
X192789643Y-140383365D01*
X193096815Y-140510600D01*
X193096815Y-140510600D01*
G37*
X193096815Y-140510600D02*
X193370312Y-140510600D01*
X195118201Y-142258491D01*
X195118201Y-142751549D01*
X195100000Y-142769750D01*
X195100000Y-142873000D01*
X194900000Y-142873000D01*
X194900000Y-142769750D01*
X194885493Y-142755243D01*
X194893197Y-142716511D01*
X194881800Y-142659214D01*
X194881800Y-142659210D01*
X194848043Y-142489504D01*
X194719454Y-142297057D01*
X194670877Y-142264599D01*
X192789643Y-140383365D01*
X193096815Y-140510600D01*
G36*
X190568710Y-140311489D02*
X190601169Y-140360067D01*
X190793616Y-140488656D01*
X190963322Y-140522413D01*
X190963326Y-140522413D01*
X191020623Y-140533810D01*
X191077920Y-140522413D01*
X191283114Y-140522413D01*
X193472998Y-142712298D01*
X193472998Y-142720973D01*
X193459698Y-142707673D01*
X193422526Y-142692276D01*
X193341250Y-142611000D01*
X193273691Y-142611000D01*
X193250000Y-142620813D01*
X193226309Y-142611000D01*
X193158750Y-142611000D01*
X193077474Y-142692276D01*
X193040302Y-142707673D01*
X192874974Y-142873000D01*
X192800000Y-142873000D01*
X192800000Y-142769750D01*
X192745627Y-142715377D01*
X192619454Y-142526546D01*
X192570876Y-142494088D01*
X191038916Y-140962128D01*
X191006456Y-140913548D01*
X190814009Y-140784959D01*
X190644303Y-140751202D01*
X190644299Y-140751202D01*
X190587002Y-140739805D01*
X190529705Y-140751202D01*
X190087974Y-140751202D01*
X189145067Y-139808297D01*
X189112607Y-139759717D01*
X188920160Y-139631128D01*
X188750454Y-139597371D01*
X188750450Y-139597371D01*
X188693153Y-139585974D01*
X188635856Y-139597371D01*
X187355467Y-139597371D01*
X187478698Y-139546327D01*
X187651232Y-139373794D01*
X187712520Y-139414746D01*
X187881000Y-139448259D01*
X188897000Y-139448259D01*
X189065480Y-139414746D01*
X189208310Y-139319310D01*
X189303746Y-139176480D01*
X189325307Y-139068086D01*
X190568710Y-140311489D01*
X190568710Y-140311489D01*
G37*
X190568710Y-140311489D02*
X190601169Y-140360067D01*
X190793616Y-140488656D01*
X190963322Y-140522413D01*
X190963326Y-140522413D01*
X191020623Y-140533810D01*
X191077920Y-140522413D01*
X191283114Y-140522413D01*
X193472998Y-142712298D01*
X193472998Y-142720973D01*
X193459698Y-142707673D01*
X193422526Y-142692276D01*
X193341250Y-142611000D01*
X193273691Y-142611000D01*
X193250000Y-142620813D01*
X193226309Y-142611000D01*
X193158750Y-142611000D01*
X193077474Y-142692276D01*
X193040302Y-142707673D01*
X192874974Y-142873000D01*
X192800000Y-142873000D01*
X192800000Y-142769750D01*
X192745627Y-142715377D01*
X192619454Y-142526546D01*
X192570876Y-142494088D01*
X191038916Y-140962128D01*
X191006456Y-140913548D01*
X190814009Y-140784959D01*
X190644303Y-140751202D01*
X190644299Y-140751202D01*
X190587002Y-140739805D01*
X190529705Y-140751202D01*
X190087974Y-140751202D01*
X189145067Y-139808297D01*
X189112607Y-139759717D01*
X188920160Y-139631128D01*
X188750454Y-139597371D01*
X188750450Y-139597371D01*
X188693153Y-139585974D01*
X188635856Y-139597371D01*
X187355467Y-139597371D01*
X187478698Y-139546327D01*
X187651232Y-139373794D01*
X187712520Y-139414746D01*
X187881000Y-139448259D01*
X188897000Y-139448259D01*
X189065480Y-139414746D01*
X189208310Y-139319310D01*
X189303746Y-139176480D01*
X189325307Y-139068086D01*
X190568710Y-140311489D01*
G36*
X189789683Y-141914802D02*
X189789687Y-141914802D01*
X189846983Y-141926199D01*
X189904279Y-141914802D01*
X190346014Y-141914802D01*
X191050481Y-142619269D01*
X190977474Y-142692276D01*
X190940302Y-142707673D01*
X190800000Y-142847974D01*
X190659698Y-142707673D01*
X190622526Y-142692276D01*
X190541250Y-142611000D01*
X190473691Y-142611000D01*
X190450000Y-142620813D01*
X190426309Y-142611000D01*
X190358750Y-142611000D01*
X190277474Y-142692276D01*
X190240302Y-142707673D01*
X190074974Y-142873000D01*
X190000000Y-142873000D01*
X190000000Y-142769750D01*
X189981800Y-142751550D01*
X189981800Y-142510291D01*
X189993197Y-142452995D01*
X189981800Y-142395699D01*
X189981800Y-142395695D01*
X189948043Y-142225989D01*
X189860401Y-142094823D01*
X189851912Y-142082118D01*
X189851910Y-142082116D01*
X189819454Y-142033542D01*
X189770879Y-142001085D01*
X189658502Y-141888708D01*
X189789683Y-141914802D01*
X189789683Y-141914802D01*
G37*
X189789683Y-141914802D02*
X189789687Y-141914802D01*
X189846983Y-141926199D01*
X189904279Y-141914802D01*
X190346014Y-141914802D01*
X191050481Y-142619269D01*
X190977474Y-142692276D01*
X190940302Y-142707673D01*
X190800000Y-142847974D01*
X190659698Y-142707673D01*
X190622526Y-142692276D01*
X190541250Y-142611000D01*
X190473691Y-142611000D01*
X190450000Y-142620813D01*
X190426309Y-142611000D01*
X190358750Y-142611000D01*
X190277474Y-142692276D01*
X190240302Y-142707673D01*
X190074974Y-142873000D01*
X190000000Y-142873000D01*
X190000000Y-142769750D01*
X189981800Y-142751550D01*
X189981800Y-142510291D01*
X189993197Y-142452995D01*
X189981800Y-142395699D01*
X189981800Y-142395695D01*
X189948043Y-142225989D01*
X189860401Y-142094823D01*
X189851912Y-142082118D01*
X189851910Y-142082116D01*
X189819454Y-142033542D01*
X189770879Y-142001085D01*
X189658502Y-141888708D01*
X189789683Y-141914802D01*
G36*
X184484588Y-140662455D02*
X184820669Y-140801664D01*
X185184439Y-140801664D01*
X185520520Y-140662455D01*
X185573598Y-140609377D01*
X185749953Y-140727214D01*
X185919659Y-140760971D01*
X185919663Y-140760971D01*
X185976960Y-140772368D01*
X186034257Y-140760971D01*
X186650415Y-140760971D01*
X186490625Y-140867739D01*
X186458166Y-140916317D01*
X186275493Y-141098990D01*
X186001997Y-141098990D01*
X185665916Y-141238199D01*
X185408691Y-141495424D01*
X185269482Y-141831505D01*
X185269482Y-142195275D01*
X185408691Y-142531356D01*
X185488335Y-142611000D01*
X185458750Y-142611000D01*
X185377474Y-142692276D01*
X185340302Y-142707673D01*
X185200000Y-142847974D01*
X185059698Y-142707673D01*
X185022526Y-142692276D01*
X184941250Y-142611000D01*
X184873691Y-142611000D01*
X184850000Y-142620813D01*
X184826309Y-142611000D01*
X184758750Y-142611000D01*
X184677474Y-142692276D01*
X184640302Y-142707673D01*
X184627002Y-142720973D01*
X184627002Y-142666155D01*
X184775191Y-142517966D01*
X184914400Y-142181885D01*
X184914400Y-141818115D01*
X184775191Y-141482034D01*
X184517966Y-141224809D01*
X184343774Y-141152656D01*
X184369152Y-141091388D01*
X184369152Y-140727618D01*
X184241450Y-140419317D01*
X184484588Y-140662455D01*
X184484588Y-140662455D01*
G37*
X184484588Y-140662455D02*
X184820669Y-140801664D01*
X185184439Y-140801664D01*
X185520520Y-140662455D01*
X185573598Y-140609377D01*
X185749953Y-140727214D01*
X185919659Y-140760971D01*
X185919663Y-140760971D01*
X185976960Y-140772368D01*
X186034257Y-140760971D01*
X186650415Y-140760971D01*
X186490625Y-140867739D01*
X186458166Y-140916317D01*
X186275493Y-141098990D01*
X186001997Y-141098990D01*
X185665916Y-141238199D01*
X185408691Y-141495424D01*
X185269482Y-141831505D01*
X185269482Y-142195275D01*
X185408691Y-142531356D01*
X185488335Y-142611000D01*
X185458750Y-142611000D01*
X185377474Y-142692276D01*
X185340302Y-142707673D01*
X185200000Y-142847974D01*
X185059698Y-142707673D01*
X185022526Y-142692276D01*
X184941250Y-142611000D01*
X184873691Y-142611000D01*
X184850000Y-142620813D01*
X184826309Y-142611000D01*
X184758750Y-142611000D01*
X184677474Y-142692276D01*
X184640302Y-142707673D01*
X184627002Y-142720973D01*
X184627002Y-142666155D01*
X184775191Y-142517966D01*
X184914400Y-142181885D01*
X184914400Y-141818115D01*
X184775191Y-141482034D01*
X184517966Y-141224809D01*
X184343774Y-141152656D01*
X184369152Y-141091388D01*
X184369152Y-140727618D01*
X184241450Y-140419317D01*
X184484588Y-140662455D01*
G36*
X195457746Y-135168146D02*
X195425287Y-135216724D01*
X194771524Y-135870488D01*
X194722947Y-135902946D01*
X194690489Y-135951523D01*
X194690488Y-135951524D01*
X194594357Y-136095394D01*
X194549203Y-136322400D01*
X194560601Y-136379702D01*
X194560600Y-139510903D01*
X194549203Y-139568200D01*
X194560600Y-139625497D01*
X194560600Y-139625500D01*
X194594357Y-139795206D01*
X194722946Y-139987654D01*
X194771526Y-140020114D01*
X196609077Y-141857666D01*
X196494809Y-141971934D01*
X196355600Y-142308015D01*
X196355600Y-142611000D01*
X196281800Y-142611000D01*
X196281800Y-142074795D01*
X196293197Y-142017499D01*
X196281800Y-141960203D01*
X196281800Y-141960199D01*
X196248043Y-141790493D01*
X196177350Y-141684694D01*
X196151912Y-141646622D01*
X196151910Y-141646620D01*
X196119454Y-141598046D01*
X196070879Y-141565590D01*
X194193100Y-139687812D01*
X194193100Y-139414315D01*
X194053891Y-139078234D01*
X193796666Y-138821009D01*
X193460585Y-138681800D01*
X193096815Y-138681800D01*
X192760734Y-138821009D01*
X192503509Y-139078234D01*
X192364300Y-139414315D01*
X192364300Y-139778085D01*
X192491535Y-140085258D01*
X191976016Y-139569739D01*
X191943556Y-139521159D01*
X191751109Y-139392570D01*
X191581403Y-139358813D01*
X191581399Y-139358813D01*
X191524102Y-139347416D01*
X191466805Y-139358813D01*
X191261612Y-139358813D01*
X190924886Y-139022087D01*
X191126789Y-139105718D01*
X191490559Y-139105718D01*
X191826640Y-138966509D01*
X192083865Y-138709284D01*
X192223074Y-138373203D01*
X192223074Y-138009433D01*
X192083865Y-137673352D01*
X191826640Y-137416127D01*
X191490559Y-137276918D01*
X191407875Y-137276918D01*
X191407875Y-135374632D01*
X191549534Y-135516291D01*
X191885615Y-135655500D01*
X192249385Y-135655500D01*
X192585466Y-135516291D01*
X192842691Y-135259066D01*
X192916117Y-135081800D01*
X195586972Y-135081800D01*
X195457746Y-135168146D01*
X195457746Y-135168146D01*
G37*
X195457746Y-135168146D02*
X195425287Y-135216724D01*
X194771524Y-135870488D01*
X194722947Y-135902946D01*
X194690489Y-135951523D01*
X194690488Y-135951524D01*
X194594357Y-136095394D01*
X194549203Y-136322400D01*
X194560601Y-136379702D01*
X194560600Y-139510903D01*
X194549203Y-139568200D01*
X194560600Y-139625497D01*
X194560600Y-139625500D01*
X194594357Y-139795206D01*
X194722946Y-139987654D01*
X194771526Y-140020114D01*
X196609077Y-141857666D01*
X196494809Y-141971934D01*
X196355600Y-142308015D01*
X196355600Y-142611000D01*
X196281800Y-142611000D01*
X196281800Y-142074795D01*
X196293197Y-142017499D01*
X196281800Y-141960203D01*
X196281800Y-141960199D01*
X196248043Y-141790493D01*
X196177350Y-141684694D01*
X196151912Y-141646622D01*
X196151910Y-141646620D01*
X196119454Y-141598046D01*
X196070879Y-141565590D01*
X194193100Y-139687812D01*
X194193100Y-139414315D01*
X194053891Y-139078234D01*
X193796666Y-138821009D01*
X193460585Y-138681800D01*
X193096815Y-138681800D01*
X192760734Y-138821009D01*
X192503509Y-139078234D01*
X192364300Y-139414315D01*
X192364300Y-139778085D01*
X192491535Y-140085258D01*
X191976016Y-139569739D01*
X191943556Y-139521159D01*
X191751109Y-139392570D01*
X191581403Y-139358813D01*
X191581399Y-139358813D01*
X191524102Y-139347416D01*
X191466805Y-139358813D01*
X191261612Y-139358813D01*
X190924886Y-139022087D01*
X191126789Y-139105718D01*
X191490559Y-139105718D01*
X191826640Y-138966509D01*
X192083865Y-138709284D01*
X192223074Y-138373203D01*
X192223074Y-138009433D01*
X192083865Y-137673352D01*
X191826640Y-137416127D01*
X191490559Y-137276918D01*
X191407875Y-137276918D01*
X191407875Y-135374632D01*
X191549534Y-135516291D01*
X191885615Y-135655500D01*
X192249385Y-135655500D01*
X192585466Y-135516291D01*
X192842691Y-135259066D01*
X192916117Y-135081800D01*
X195586972Y-135081800D01*
X195457746Y-135168146D01*
G36*
X184451980Y-136408388D02*
X184451980Y-136681885D01*
X184591189Y-137017966D01*
X184848414Y-137275191D01*
X185184495Y-137414400D01*
X185548265Y-137414400D01*
X185788686Y-137314814D01*
X185791690Y-137319310D01*
X185897308Y-137389882D01*
X185743302Y-137453673D01*
X185564673Y-137632301D01*
X185468000Y-137865690D01*
X185468000Y-138214250D01*
X185626750Y-138373000D01*
X186484000Y-138373000D01*
X186484000Y-138353000D01*
X186738000Y-138353000D01*
X186738000Y-138373000D01*
X186758000Y-138373000D01*
X186758000Y-138627000D01*
X186738000Y-138627000D01*
X186738000Y-138647000D01*
X186484000Y-138647000D01*
X186484000Y-138627000D01*
X185626750Y-138627000D01*
X185468000Y-138785750D01*
X185468000Y-139090319D01*
X185184439Y-138972864D01*
X184889035Y-138972864D01*
X184811188Y-138920848D01*
X184641482Y-138887091D01*
X184641478Y-138887091D01*
X184584181Y-138875694D01*
X184526884Y-138887091D01*
X184032000Y-138887091D01*
X184032000Y-138785750D01*
X183873250Y-138627000D01*
X183016000Y-138627000D01*
X183016000Y-138647000D01*
X182762000Y-138647000D01*
X182762000Y-138627000D01*
X182742000Y-138627000D01*
X182742000Y-138373000D01*
X182762000Y-138373000D01*
X182762000Y-137515750D01*
X182746250Y-137500000D01*
X182762000Y-137484250D01*
X182762000Y-136627000D01*
X183016000Y-136627000D01*
X183016000Y-137484250D01*
X183031750Y-137500000D01*
X183016000Y-137515750D01*
X183016000Y-138373000D01*
X183873250Y-138373000D01*
X184032000Y-138214250D01*
X184032000Y-137865690D01*
X183935327Y-137632301D01*
X183803025Y-137500000D01*
X183935327Y-137367699D01*
X184032000Y-137134310D01*
X184032000Y-136785750D01*
X183873250Y-136627000D01*
X183016000Y-136627000D01*
X182762000Y-136627000D01*
X182742000Y-136627000D01*
X182742000Y-136373000D01*
X182762000Y-136373000D01*
X182762000Y-136353000D01*
X183016000Y-136353000D01*
X183016000Y-136373000D01*
X183873250Y-136373000D01*
X184032000Y-136214250D01*
X184032000Y-136099201D01*
X184142793Y-136099201D01*
X184451980Y-136408388D01*
X184451980Y-136408388D01*
G37*
X184451980Y-136408388D02*
X184451980Y-136681885D01*
X184591189Y-137017966D01*
X184848414Y-137275191D01*
X185184495Y-137414400D01*
X185548265Y-137414400D01*
X185788686Y-137314814D01*
X185791690Y-137319310D01*
X185897308Y-137389882D01*
X185743302Y-137453673D01*
X185564673Y-137632301D01*
X185468000Y-137865690D01*
X185468000Y-138214250D01*
X185626750Y-138373000D01*
X186484000Y-138373000D01*
X186484000Y-138353000D01*
X186738000Y-138353000D01*
X186738000Y-138373000D01*
X186758000Y-138373000D01*
X186758000Y-138627000D01*
X186738000Y-138627000D01*
X186738000Y-138647000D01*
X186484000Y-138647000D01*
X186484000Y-138627000D01*
X185626750Y-138627000D01*
X185468000Y-138785750D01*
X185468000Y-139090319D01*
X185184439Y-138972864D01*
X184889035Y-138972864D01*
X184811188Y-138920848D01*
X184641482Y-138887091D01*
X184641478Y-138887091D01*
X184584181Y-138875694D01*
X184526884Y-138887091D01*
X184032000Y-138887091D01*
X184032000Y-138785750D01*
X183873250Y-138627000D01*
X183016000Y-138627000D01*
X183016000Y-138647000D01*
X182762000Y-138647000D01*
X182762000Y-138627000D01*
X182742000Y-138627000D01*
X182742000Y-138373000D01*
X182762000Y-138373000D01*
X182762000Y-137515750D01*
X182746250Y-137500000D01*
X182762000Y-137484250D01*
X182762000Y-136627000D01*
X183016000Y-136627000D01*
X183016000Y-137484250D01*
X183031750Y-137500000D01*
X183016000Y-137515750D01*
X183016000Y-138373000D01*
X183873250Y-138373000D01*
X184032000Y-138214250D01*
X184032000Y-137865690D01*
X183935327Y-137632301D01*
X183803025Y-137500000D01*
X183935327Y-137367699D01*
X184032000Y-137134310D01*
X184032000Y-136785750D01*
X183873250Y-136627000D01*
X183016000Y-136627000D01*
X182762000Y-136627000D01*
X182742000Y-136627000D01*
X182742000Y-136373000D01*
X182762000Y-136373000D01*
X182762000Y-136353000D01*
X183016000Y-136353000D01*
X183016000Y-136373000D01*
X183873250Y-136373000D01*
X184032000Y-136214250D01*
X184032000Y-136099201D01*
X184142793Y-136099201D01*
X184451980Y-136408388D01*
M02*
