G04 #@! TF.GenerationSoftware,KiCad,Pcbnew,(2018-02-15 revision 29b28de31)-makepkg*
G04 #@! TF.CreationDate,2018-04-28T16:50:53+09:30*
G04 #@! TF.ProjectId,short_oled_ssd1306,73686F72745F6F6C65645F7373643133,rev?*
G04 #@! TF.SameCoordinates,Original*
G04 #@! TF.FileFunction,Paste,Top*
G04 #@! TF.FilePolarity,Positive*
%FSLAX46Y46*%
G04 Gerber Fmt 4.6, Leading zero omitted, Abs format (unit mm)*
G04 Created by KiCad (PCBNEW (2018-02-15 revision 29b28de31)-makepkg) date 04/28/18 16:50:53*
%MOMM*%
%LPD*%
G01*
G04 APERTURE LIST*
%ADD10C,0.200000*%
%ADD11C,0.254000*%
%ADD12R,0.914400X0.914400*%
%ADD13R,0.298400X2.438400*%
G04 APERTURE END LIST*
D10*
X199500000Y-131000000D02*
X203000000Y-131000000D01*
X199500000Y-127500000D02*
X199500000Y-131000000D01*
X183000000Y-131000000D02*
X183000000Y-127500000D01*
X179500000Y-131000000D02*
X183000000Y-131000000D01*
D11*
X179500000Y-131000000D02*
X179500000Y-146500000D01*
X203000000Y-131000000D02*
X203000000Y-146500000D01*
X183000000Y-127500000D02*
X199500000Y-127500000D01*
X179500000Y-146500000D02*
X203000000Y-146500000D01*
D12*
X196611000Y-134500000D03*
X198389000Y-134500000D03*
X182889000Y-136500000D03*
X181111000Y-136500000D03*
X182889000Y-138500000D03*
X181111000Y-138500000D03*
X186611000Y-138500000D03*
X188389000Y-138500000D03*
X196611000Y-136500000D03*
X198389000Y-136500000D03*
X196611000Y-138500000D03*
X198389000Y-138500000D03*
D13*
X191500000Y-144516000D03*
X192200000Y-144516000D03*
X192900000Y-144516000D03*
X193600000Y-144516000D03*
X194300000Y-144516000D03*
X195000000Y-144516000D03*
X195700000Y-144516000D03*
X196400000Y-144516000D03*
X197100000Y-144516000D03*
X197800000Y-144516000D03*
X198500000Y-144516000D03*
X199200000Y-144516000D03*
X199900000Y-144516000D03*
X200600000Y-144516000D03*
X201300000Y-144516000D03*
X181000000Y-144516000D03*
X181700000Y-144516000D03*
X182400000Y-144516000D03*
X183100000Y-144516000D03*
X183800000Y-144516000D03*
X184500000Y-144516000D03*
X185200000Y-144516000D03*
X185900000Y-144516000D03*
X186600000Y-144516000D03*
X187300000Y-144516000D03*
X188000000Y-144516000D03*
X188700000Y-144516000D03*
X189400000Y-144516000D03*
X190100000Y-144516000D03*
X190800000Y-144516000D03*
D12*
X196611000Y-132500000D03*
X198389000Y-132500000D03*
X186611000Y-136500000D03*
X188389000Y-136500000D03*
X181111000Y-132500000D03*
X182889000Y-132500000D03*
X182889000Y-134500000D03*
X181111000Y-134500000D03*
M02*
