M48
INCH,TZ
T1C0.0240
T2C0.0394
%
G90
G05
T1
X71743Y-56056
X72226Y-55476
X72441Y-55906
X72836Y-55074
X72979Y-53740
X73023Y-52905
X73031Y-52165
X73301Y-55911
X73554Y-53109
X73940Y-55974
X74766Y-55172
X75318Y-54406
X75617Y-53048
X76094Y-54959
X77665Y-56098
X79331Y-52559
X79331Y-53543
X79331Y-54528
X79331Y-55512
T2
X73772Y-50787
X74772Y-50787
X75772Y-50787
X76772Y-50787
T0
M30
