G04 #@! TF.GenerationSoftware,KiCad,Pcbnew,(2018-02-15 revision 29b28de31)-makepkg*
G04 #@! TF.CreationDate,2018-04-28T16:50:53+09:30*
G04 #@! TF.ProjectId,short_oled_ssd1306,73686F72745F6F6C65645F7373643133,rev?*
G04 #@! TF.SameCoordinates,Original*
G04 #@! TF.FileFunction,Copper,L2,Bot,Signal*
G04 #@! TF.FilePolarity,Positive*
%FSLAX46Y46*%
G04 Gerber Fmt 4.6, Leading zero omitted, Abs format (unit mm)*
G04 Created by KiCad (PCBNEW (2018-02-15 revision 29b28de31)-makepkg) date 04/28/18 16:50:53*
%MOMM*%
%LPD*%
G01*
G04 APERTURE LIST*
%ADD10C,0.200000*%
%ADD11C,0.254000*%
%ADD12O,1.700000X1.700000*%
%ADD13R,1.700000X1.700000*%
%ADD14C,0.965200*%
%ADD15C,0.300000*%
G04 APERTURE END LIST*
D10*
X199500000Y-131000000D02*
X203000000Y-131000000D01*
X199500000Y-127500000D02*
X199500000Y-131000000D01*
X183000000Y-131000000D02*
X183000000Y-127500000D01*
X179500000Y-131000000D02*
X183000000Y-131000000D01*
D11*
X179500000Y-131000000D02*
X179500000Y-146500000D01*
X203000000Y-131000000D02*
X203000000Y-146500000D01*
X183000000Y-127500000D02*
X199500000Y-127500000D01*
X179500000Y-146500000D02*
X203000000Y-146500000D01*
D12*
X187380000Y-129000000D03*
X189920000Y-129000000D03*
X192460000Y-129000000D03*
D13*
X195000000Y-129000000D03*
D14*
X189905556Y-140137718D03*
X201500000Y-141000000D03*
X201500000Y-138500000D03*
X201500000Y-136000000D03*
X201500000Y-133500000D03*
X185366380Y-136500000D03*
X182226789Y-142382313D03*
X186183882Y-142013390D03*
X186828047Y-134895632D03*
X187808628Y-142173794D03*
X185499994Y-132500000D03*
X191308674Y-138191318D03*
X184000000Y-142000000D03*
X193278700Y-139596200D03*
X197270000Y-142489900D03*
X185002554Y-139887264D03*
X185477353Y-134378120D03*
X183454752Y-140909503D03*
X192067500Y-134741100D03*
D15*
X189920000Y-129000000D02*
X194173600Y-133253600D01*
X194173600Y-133253600D02*
X194173600Y-140002900D01*
X193556183Y-140620317D02*
X190388155Y-140620317D01*
X194173600Y-140002900D02*
X193556183Y-140620317D01*
X190388155Y-140620317D02*
X189905556Y-140137718D01*
X182226789Y-139639591D02*
X185366380Y-136500000D01*
X182226789Y-142382313D02*
X182226789Y-139639591D01*
X184752768Y-143444504D02*
X186183882Y-142013390D01*
X186828047Y-134895632D02*
X186828047Y-134213133D01*
X186910080Y-141287192D02*
X186183882Y-142013390D01*
X181326100Y-137217201D02*
X181326100Y-142802247D01*
X192460000Y-129000000D02*
X194727900Y-131267900D01*
X186828047Y-134213133D02*
X186106432Y-133491518D01*
X186106432Y-133491518D02*
X185051783Y-133491518D01*
X194727900Y-140232400D02*
X193673108Y-141287192D01*
X181968357Y-143444504D02*
X184752768Y-143444504D01*
X181326100Y-142802247D02*
X181968357Y-143444504D01*
X193673108Y-141287192D02*
X186910080Y-141287192D01*
X194727900Y-131267900D02*
X194727900Y-140232400D01*
X185051783Y-133491518D02*
X181326100Y-137217201D01*
X193570306Y-142173794D02*
X187808628Y-142173794D01*
X195282200Y-140461900D02*
X193570306Y-142173794D01*
X195282200Y-130432200D02*
X195282200Y-140461900D01*
X195000000Y-130150000D02*
X195282200Y-130432200D01*
X195000000Y-129000000D02*
X195000000Y-130150000D01*
X185955857Y-144026565D02*
X187808628Y-142173794D01*
X181586369Y-144026565D02*
X185955857Y-144026565D01*
X180771800Y-143211996D02*
X181586369Y-144026565D01*
X180771800Y-136545695D02*
X180771800Y-143211996D01*
X185499994Y-132500000D02*
X184817495Y-132500000D01*
X184817495Y-132500000D02*
X180771800Y-136545695D01*
X185894400Y-141152888D02*
X188855970Y-138191318D01*
X188855970Y-138191318D02*
X191308674Y-138191318D01*
X185760885Y-141152888D02*
X185894400Y-141152888D01*
X184000000Y-142000000D02*
X184913773Y-142000000D01*
X184913773Y-142000000D02*
X185760885Y-141152888D01*
X195179324Y-144580576D02*
X181356891Y-144580576D01*
X197270000Y-142489900D02*
X195179324Y-144580576D01*
X184687824Y-129000000D02*
X187380000Y-129000000D01*
X183504010Y-131208767D02*
X183504010Y-130183814D01*
X181356891Y-144580576D02*
X180217400Y-143441085D01*
X180217400Y-134495377D02*
X183504010Y-131208767D01*
X180217400Y-143441085D02*
X180217400Y-134495377D01*
X183504010Y-130183814D02*
X184687824Y-129000000D01*
X187380000Y-129000000D02*
X188634300Y-129000000D01*
X193278700Y-134639600D02*
X193278700Y-139596200D01*
X188634300Y-129995200D02*
X193278700Y-134639600D01*
X188634300Y-129000000D02*
X188634300Y-129995200D01*
X186252989Y-135836255D02*
X186252989Y-138636829D01*
X186252989Y-138636829D02*
X185002554Y-139887264D01*
X185477353Y-135060619D02*
X186252989Y-135836255D01*
X185477353Y-134378120D02*
X185477353Y-135060619D01*
X191584901Y-135223699D02*
X191040101Y-135223699D01*
X185220781Y-140909503D02*
X183454752Y-140909503D01*
X192067500Y-134741100D02*
X191584901Y-135223699D01*
X191040101Y-135223699D02*
X185664923Y-140598877D01*
X185664923Y-140598877D02*
X185531407Y-140598877D01*
X185531407Y-140598877D02*
X185220781Y-140909503D01*
D11*
G36*
X198968201Y-130947620D02*
X198957782Y-131000000D01*
X198999056Y-131207498D01*
X199116594Y-131383406D01*
X199292502Y-131500944D01*
X199447625Y-131531800D01*
X199447626Y-131531800D01*
X199500000Y-131542218D01*
X199552375Y-131531800D01*
X202441200Y-131531800D01*
X202441201Y-145941200D01*
X180058800Y-145941200D01*
X180058800Y-144105273D01*
X180904979Y-144951452D01*
X180937437Y-145000030D01*
X181129884Y-145128619D01*
X181299590Y-145162376D01*
X181299594Y-145162376D01*
X181356891Y-145173773D01*
X181414188Y-145162376D01*
X195122027Y-145162376D01*
X195179324Y-145173773D01*
X195236621Y-145162376D01*
X195236625Y-145162376D01*
X195406331Y-145128619D01*
X195598778Y-145000030D01*
X195631238Y-144951450D01*
X197178389Y-143404300D01*
X197451885Y-143404300D01*
X197787966Y-143265091D01*
X198045191Y-143007866D01*
X198184400Y-142671785D01*
X198184400Y-142308015D01*
X198045191Y-141971934D01*
X197787966Y-141714709D01*
X197451885Y-141575500D01*
X197088115Y-141575500D01*
X196752034Y-141714709D01*
X196494809Y-141971934D01*
X196355600Y-142308015D01*
X196355600Y-142581511D01*
X194938336Y-143998776D01*
X186806434Y-143998776D01*
X187717017Y-143088194D01*
X187990513Y-143088194D01*
X188326594Y-142948985D01*
X188519985Y-142755594D01*
X193513009Y-142755594D01*
X193570306Y-142766991D01*
X193627603Y-142755594D01*
X193627607Y-142755594D01*
X193797313Y-142721837D01*
X193989760Y-142593248D01*
X194022220Y-142544668D01*
X195653077Y-140913812D01*
X195701654Y-140881354D01*
X195830243Y-140688907D01*
X195864000Y-140519201D01*
X195864000Y-140519197D01*
X195875397Y-140461900D01*
X195864000Y-140404603D01*
X195864000Y-130489496D01*
X195875397Y-130432199D01*
X195864000Y-130374900D01*
X195864000Y-130374899D01*
X195847164Y-130290259D01*
X195850000Y-130290259D01*
X196018480Y-130256746D01*
X196161310Y-130161310D01*
X196256746Y-130018480D01*
X196290259Y-129850000D01*
X196290259Y-128150000D01*
X196272118Y-128058800D01*
X198968200Y-128058800D01*
X198968201Y-130947620D01*
X198968201Y-130947620D01*
G37*
X198968201Y-130947620D02*
X198957782Y-131000000D01*
X198999056Y-131207498D01*
X199116594Y-131383406D01*
X199292502Y-131500944D01*
X199447625Y-131531800D01*
X199447626Y-131531800D01*
X199500000Y-131542218D01*
X199552375Y-131531800D01*
X202441200Y-131531800D01*
X202441201Y-145941200D01*
X180058800Y-145941200D01*
X180058800Y-144105273D01*
X180904979Y-144951452D01*
X180937437Y-145000030D01*
X181129884Y-145128619D01*
X181299590Y-145162376D01*
X181299594Y-145162376D01*
X181356891Y-145173773D01*
X181414188Y-145162376D01*
X195122027Y-145162376D01*
X195179324Y-145173773D01*
X195236621Y-145162376D01*
X195236625Y-145162376D01*
X195406331Y-145128619D01*
X195598778Y-145000030D01*
X195631238Y-144951450D01*
X197178389Y-143404300D01*
X197451885Y-143404300D01*
X197787966Y-143265091D01*
X198045191Y-143007866D01*
X198184400Y-142671785D01*
X198184400Y-142308015D01*
X198045191Y-141971934D01*
X197787966Y-141714709D01*
X197451885Y-141575500D01*
X197088115Y-141575500D01*
X196752034Y-141714709D01*
X196494809Y-141971934D01*
X196355600Y-142308015D01*
X196355600Y-142581511D01*
X194938336Y-143998776D01*
X186806434Y-143998776D01*
X187717017Y-143088194D01*
X187990513Y-143088194D01*
X188326594Y-142948985D01*
X188519985Y-142755594D01*
X193513009Y-142755594D01*
X193570306Y-142766991D01*
X193627603Y-142755594D01*
X193627607Y-142755594D01*
X193797313Y-142721837D01*
X193989760Y-142593248D01*
X194022220Y-142544668D01*
X195653077Y-140913812D01*
X195701654Y-140881354D01*
X195830243Y-140688907D01*
X195864000Y-140519201D01*
X195864000Y-140519197D01*
X195875397Y-140461900D01*
X195864000Y-140404603D01*
X195864000Y-130489496D01*
X195875397Y-130432199D01*
X195864000Y-130374900D01*
X195864000Y-130374899D01*
X195847164Y-130290259D01*
X195850000Y-130290259D01*
X196018480Y-130256746D01*
X196161310Y-130161310D01*
X196256746Y-130018480D01*
X196290259Y-129850000D01*
X196290259Y-128150000D01*
X196272118Y-128058800D01*
X198968200Y-128058800D01*
X198968201Y-130947620D01*
G36*
X192696901Y-138884842D02*
X192503509Y-139078234D01*
X192364300Y-139414315D01*
X192364300Y-139778085D01*
X192503509Y-140114166D01*
X192760734Y-140371391D01*
X193096815Y-140510600D01*
X193460585Y-140510600D01*
X193744522Y-140392990D01*
X193432120Y-140705392D01*
X187164685Y-140705392D01*
X189096960Y-138773118D01*
X190597317Y-138773118D01*
X190790708Y-138966509D01*
X191126789Y-139105718D01*
X191490559Y-139105718D01*
X191826640Y-138966509D01*
X192083865Y-138709284D01*
X192223074Y-138373203D01*
X192223074Y-138009433D01*
X192083865Y-137673352D01*
X191826640Y-137416127D01*
X191490559Y-137276918D01*
X191126789Y-137276918D01*
X190790708Y-137416127D01*
X190597317Y-137609518D01*
X189477071Y-137609518D01*
X191281090Y-135805499D01*
X191527604Y-135805499D01*
X191584901Y-135816896D01*
X191642198Y-135805499D01*
X191642202Y-135805499D01*
X191811908Y-135771742D01*
X191985876Y-135655500D01*
X192249385Y-135655500D01*
X192585466Y-135516291D01*
X192696900Y-135404857D01*
X192696901Y-138884842D01*
X192696901Y-138884842D01*
G37*
X192696901Y-138884842D02*
X192503509Y-139078234D01*
X192364300Y-139414315D01*
X192364300Y-139778085D01*
X192503509Y-140114166D01*
X192760734Y-140371391D01*
X193096815Y-140510600D01*
X193460585Y-140510600D01*
X193744522Y-140392990D01*
X193432120Y-140705392D01*
X187164685Y-140705392D01*
X189096960Y-138773118D01*
X190597317Y-138773118D01*
X190790708Y-138966509D01*
X191126789Y-139105718D01*
X191490559Y-139105718D01*
X191826640Y-138966509D01*
X192083865Y-138709284D01*
X192223074Y-138373203D01*
X192223074Y-138009433D01*
X192083865Y-137673352D01*
X191826640Y-137416127D01*
X191490559Y-137276918D01*
X191126789Y-137276918D01*
X190790708Y-137416127D01*
X190597317Y-137609518D01*
X189477071Y-137609518D01*
X191281090Y-135805499D01*
X191527604Y-135805499D01*
X191584901Y-135816896D01*
X191642198Y-135805499D01*
X191642202Y-135805499D01*
X191811908Y-135771742D01*
X191985876Y-135655500D01*
X192249385Y-135655500D01*
X192585466Y-135516291D01*
X192696900Y-135404857D01*
X192696901Y-138884842D01*
G36*
X190047000Y-128873000D02*
X190067000Y-128873000D01*
X190067000Y-129127000D01*
X190047000Y-129127000D01*
X190047000Y-129147000D01*
X189793000Y-129147000D01*
X189793000Y-129127000D01*
X189773000Y-129127000D01*
X189773000Y-128873000D01*
X189793000Y-128873000D01*
X189793000Y-128853000D01*
X190047000Y-128853000D01*
X190047000Y-128873000D01*
X190047000Y-128873000D01*
G37*
X190047000Y-128873000D02*
X190067000Y-128873000D01*
X190067000Y-129127000D01*
X190047000Y-129127000D01*
X190047000Y-129147000D01*
X189793000Y-129147000D01*
X189793000Y-129127000D01*
X189773000Y-129127000D01*
X189773000Y-128873000D01*
X189793000Y-128873000D01*
X189793000Y-128853000D01*
X190047000Y-128853000D01*
X190047000Y-128873000D01*
M02*
