G04 #@! TF.GenerationSoftware,KiCad,Pcbnew,(2018-02-15 revision 29b28de31)-makepkg*
G04 #@! TF.CreationDate,2018-04-28T16:50:53+09:30*
G04 #@! TF.ProjectId,short_oled_ssd1306,73686F72745F6F6C65645F7373643133,rev?*
G04 #@! TF.SameCoordinates,Original*
G04 #@! TF.FileFunction,Legend,Top*
G04 #@! TF.FilePolarity,Positive*
%FSLAX46Y46*%
G04 Gerber Fmt 4.6, Leading zero omitted, Abs format (unit mm)*
G04 Created by KiCad (PCBNEW (2018-02-15 revision 29b28de31)-makepkg) date 04/28/18 16:50:53*
%MOMM*%
%LPD*%
G01*
G04 APERTURE LIST*
%ADD10C,0.200000*%
%ADD11C,0.254000*%
%ADD12C,0.120000*%
%ADD13C,0.127000*%
%ADD14C,0.150000*%
G04 APERTURE END LIST*
D10*
X199500000Y-131000000D02*
X203000000Y-131000000D01*
X199500000Y-127500000D02*
X199500000Y-131000000D01*
X183000000Y-131000000D02*
X183000000Y-127500000D01*
X179500000Y-131000000D02*
X183000000Y-131000000D01*
X196509523Y-140661904D02*
X196242857Y-140280952D01*
X196052380Y-140661904D02*
X196052380Y-139861904D01*
X196357142Y-139861904D01*
X196433333Y-139900000D01*
X196471428Y-139938095D01*
X196509523Y-140014285D01*
X196509523Y-140128571D01*
X196471428Y-140204761D01*
X196433333Y-140242857D01*
X196357142Y-140280952D01*
X196052380Y-140280952D01*
X197157142Y-140623809D02*
X197080952Y-140661904D01*
X196928571Y-140661904D01*
X196852380Y-140623809D01*
X196814285Y-140547619D01*
X196814285Y-140242857D01*
X196852380Y-140166666D01*
X196928571Y-140128571D01*
X197080952Y-140128571D01*
X197157142Y-140166666D01*
X197195238Y-140242857D01*
X197195238Y-140319047D01*
X196814285Y-140395238D01*
X197461904Y-140128571D02*
X197652380Y-140661904D01*
X197842857Y-140128571D01*
X198147619Y-140585714D02*
X198185714Y-140623809D01*
X198147619Y-140661904D01*
X198109523Y-140623809D01*
X198147619Y-140585714D01*
X198147619Y-140661904D01*
X198795238Y-140242857D02*
X198909523Y-140280952D01*
X198947619Y-140319047D01*
X198985714Y-140395238D01*
X198985714Y-140509523D01*
X198947619Y-140585714D01*
X198909523Y-140623809D01*
X198833333Y-140661904D01*
X198528571Y-140661904D01*
X198528571Y-139861904D01*
X198795238Y-139861904D01*
X198871428Y-139900000D01*
X198909523Y-139938095D01*
X198947619Y-140014285D01*
X198947619Y-140090476D01*
X198909523Y-140166666D01*
X198871428Y-140204761D01*
X198795238Y-140242857D01*
X198528571Y-140242857D01*
X192776190Y-142061904D02*
X192776190Y-141261904D01*
X192776190Y-141566666D02*
X192852380Y-141528571D01*
X193004761Y-141528571D01*
X193080952Y-141566666D01*
X193119047Y-141604761D01*
X193157142Y-141680952D01*
X193157142Y-141909523D01*
X193119047Y-141985714D01*
X193080952Y-142023809D01*
X193004761Y-142061904D01*
X192852380Y-142061904D01*
X192776190Y-142023809D01*
X193423809Y-141528571D02*
X193614285Y-142061904D01*
X193804761Y-141528571D02*
X193614285Y-142061904D01*
X193538095Y-142252380D01*
X193500000Y-142290476D01*
X193423809Y-142328571D01*
X194642857Y-141261904D02*
X194833333Y-142061904D01*
X194985714Y-141490476D01*
X195138095Y-142061904D01*
X195328571Y-141261904D01*
X195633333Y-142061904D02*
X195633333Y-141261904D01*
X195976190Y-142061904D02*
X195976190Y-141642857D01*
X195938095Y-141566666D01*
X195861904Y-141528571D01*
X195747619Y-141528571D01*
X195671428Y-141566666D01*
X195633333Y-141604761D01*
X196700000Y-142061904D02*
X196700000Y-141642857D01*
X196661904Y-141566666D01*
X196585714Y-141528571D01*
X196433333Y-141528571D01*
X196357142Y-141566666D01*
X196700000Y-142023809D02*
X196623809Y-142061904D01*
X196433333Y-142061904D01*
X196357142Y-142023809D01*
X196319047Y-141947619D01*
X196319047Y-141871428D01*
X196357142Y-141795238D01*
X196433333Y-141757142D01*
X196623809Y-141757142D01*
X196700000Y-141719047D01*
X196966666Y-141528571D02*
X197271428Y-141528571D01*
X197080952Y-141261904D02*
X197080952Y-141947619D01*
X197119047Y-142023809D01*
X197195238Y-142061904D01*
X197271428Y-142061904D01*
X197538095Y-141528571D02*
X197538095Y-142061904D01*
X197538095Y-141604761D02*
X197576190Y-141566666D01*
X197652380Y-141528571D01*
X197766666Y-141528571D01*
X197842857Y-141566666D01*
X197880952Y-141642857D01*
X197880952Y-142061904D01*
X198261904Y-142061904D02*
X198261904Y-141528571D01*
X198261904Y-141261904D02*
X198223809Y-141300000D01*
X198261904Y-141338095D01*
X198300000Y-141300000D01*
X198261904Y-141261904D01*
X198261904Y-141338095D01*
X198985714Y-142023809D02*
X198909523Y-142061904D01*
X198757142Y-142061904D01*
X198680952Y-142023809D01*
X198642857Y-141985714D01*
X198604761Y-141909523D01*
X198604761Y-141680952D01*
X198642857Y-141604761D01*
X198680952Y-141566666D01*
X198757142Y-141528571D01*
X198909523Y-141528571D01*
X198985714Y-141566666D01*
X199328571Y-142061904D02*
X199328571Y-141261904D01*
X199404761Y-141757142D02*
X199633333Y-142061904D01*
X199633333Y-141528571D02*
X199328571Y-141833333D01*
X200585714Y-142061904D02*
X200585714Y-141261904D01*
X200966666Y-142061904D02*
X200966666Y-141261904D01*
X201423809Y-142061904D01*
X201423809Y-141261904D01*
X202261904Y-141985714D02*
X202223809Y-142023809D01*
X202109523Y-142061904D01*
X202033333Y-142061904D01*
X201919047Y-142023809D01*
X201842857Y-141947619D01*
X201804761Y-141871428D01*
X201766666Y-141719047D01*
X201766666Y-141604761D01*
X201804761Y-141452380D01*
X201842857Y-141376190D01*
X201919047Y-141300000D01*
X202033333Y-141261904D01*
X202109523Y-141261904D01*
X202223809Y-141300000D01*
X202261904Y-141338095D01*
X200959619Y-139918857D02*
X199943619Y-139918857D01*
X200669333Y-139580190D01*
X199943619Y-139241523D01*
X200959619Y-139241523D01*
X199943619Y-138564190D02*
X199943619Y-138370666D01*
X199992000Y-138273904D01*
X200088761Y-138177142D01*
X200282285Y-138128761D01*
X200620952Y-138128761D01*
X200814476Y-138177142D01*
X200911238Y-138273904D01*
X200959619Y-138370666D01*
X200959619Y-138564190D01*
X200911238Y-138660952D01*
X200814476Y-138757714D01*
X200620952Y-138806095D01*
X200282285Y-138806095D01*
X200088761Y-138757714D01*
X199992000Y-138660952D01*
X199943619Y-138564190D01*
X200959619Y-137693333D02*
X199943619Y-137693333D01*
X199943619Y-137451428D01*
X199992000Y-137306285D01*
X200088761Y-137209523D01*
X200185523Y-137161142D01*
X200379047Y-137112761D01*
X200524190Y-137112761D01*
X200717714Y-137161142D01*
X200814476Y-137209523D01*
X200911238Y-137306285D01*
X200959619Y-137451428D01*
X200959619Y-137693333D01*
X200572571Y-136677333D02*
X200572571Y-135903238D01*
X199943619Y-135225904D02*
X199943619Y-135032380D01*
X199992000Y-134935619D01*
X200088761Y-134838857D01*
X200282285Y-134790476D01*
X200620952Y-134790476D01*
X200814476Y-134838857D01*
X200911238Y-134935619D01*
X200959619Y-135032380D01*
X200959619Y-135225904D01*
X200911238Y-135322666D01*
X200814476Y-135419428D01*
X200620952Y-135467809D01*
X200282285Y-135467809D01*
X200088761Y-135419428D01*
X199992000Y-135322666D01*
X199943619Y-135225904D01*
X200959619Y-133871238D02*
X200959619Y-134355047D01*
X199943619Y-134355047D01*
X200427428Y-133532571D02*
X200427428Y-133193904D01*
X200959619Y-133048761D02*
X200959619Y-133532571D01*
X199943619Y-133532571D01*
X199943619Y-133048761D01*
X200959619Y-132613333D02*
X199943619Y-132613333D01*
X199943619Y-132371428D01*
X199992000Y-132226285D01*
X200088761Y-132129523D01*
X200185523Y-132081142D01*
X200379047Y-132032761D01*
X200524190Y-132032761D01*
X200717714Y-132081142D01*
X200814476Y-132129523D01*
X200911238Y-132226285D01*
X200959619Y-132371428D01*
X200959619Y-132613333D01*
D11*
X179500000Y-131000000D02*
X179500000Y-146500000D01*
X203000000Y-131000000D02*
X203000000Y-146500000D01*
X183000000Y-127500000D02*
X199500000Y-127500000D01*
X179500000Y-146500000D02*
X203000000Y-146500000D01*
D12*
X196330000Y-127670000D02*
X196330000Y-129000000D01*
X195000000Y-127670000D02*
X196330000Y-127670000D01*
X193730000Y-130330000D02*
X193730000Y-127670000D01*
X186050000Y-130330000D02*
X193730000Y-130330000D01*
X186050000Y-127670000D02*
X186050000Y-130330000D01*
X193730000Y-127670000D02*
X186050000Y-127670000D01*
D13*
X198008000Y-133865000D02*
X199024000Y-133865000D01*
X199024000Y-133865000D02*
X199024000Y-135135000D01*
X199024000Y-135135000D02*
X198008000Y-135135000D01*
X195976000Y-133865000D02*
X195976000Y-135135000D01*
X195976000Y-135135000D02*
X196992000Y-135135000D01*
X195976000Y-133865000D02*
X196992000Y-133865000D01*
X180476000Y-135865000D02*
X181492000Y-135865000D01*
X180476000Y-137135000D02*
X181492000Y-137135000D01*
X180476000Y-135865000D02*
X180476000Y-137135000D01*
X183524000Y-137135000D02*
X182508000Y-137135000D01*
X183524000Y-135865000D02*
X183524000Y-137135000D01*
X182508000Y-135865000D02*
X183524000Y-135865000D01*
X181492000Y-139135000D02*
X180476000Y-139135000D01*
X180476000Y-139135000D02*
X180476000Y-137865000D01*
X180476000Y-137865000D02*
X181492000Y-137865000D01*
X183524000Y-139135000D02*
X183524000Y-137865000D01*
X183524000Y-137865000D02*
X182508000Y-137865000D01*
X183524000Y-139135000D02*
X182508000Y-139135000D01*
X189024000Y-139135000D02*
X188008000Y-139135000D01*
X189024000Y-137865000D02*
X188008000Y-137865000D01*
X189024000Y-139135000D02*
X189024000Y-137865000D01*
X185976000Y-137865000D02*
X186992000Y-137865000D01*
X185976000Y-139135000D02*
X185976000Y-137865000D01*
X186992000Y-139135000D02*
X185976000Y-139135000D01*
X198008000Y-135865000D02*
X199024000Y-135865000D01*
X199024000Y-135865000D02*
X199024000Y-137135000D01*
X199024000Y-137135000D02*
X198008000Y-137135000D01*
X195976000Y-135865000D02*
X195976000Y-137135000D01*
X195976000Y-137135000D02*
X196992000Y-137135000D01*
X195976000Y-135865000D02*
X196992000Y-135865000D01*
X199024000Y-139135000D02*
X198008000Y-139135000D01*
X199024000Y-137865000D02*
X198008000Y-137865000D01*
X199024000Y-139135000D02*
X199024000Y-137865000D01*
X195976000Y-137865000D02*
X196992000Y-137865000D01*
X195976000Y-139135000D02*
X195976000Y-137865000D01*
X196992000Y-139135000D02*
X195976000Y-139135000D01*
X202150000Y-143816000D02*
X202150000Y-146356000D01*
X180150000Y-146356000D02*
X180150000Y-143816000D01*
X202150000Y-143816000D02*
X201750000Y-143816000D01*
X180250000Y-143816000D02*
X180550000Y-143816000D01*
X202072000Y-146356000D02*
X180228000Y-146356000D01*
X198008000Y-131865000D02*
X199024000Y-131865000D01*
X199024000Y-131865000D02*
X199024000Y-133135000D01*
X199024000Y-133135000D02*
X198008000Y-133135000D01*
X195976000Y-131865000D02*
X195976000Y-133135000D01*
X195976000Y-133135000D02*
X196992000Y-133135000D01*
X195976000Y-131865000D02*
X196992000Y-131865000D01*
X189024000Y-137135000D02*
X188008000Y-137135000D01*
X189024000Y-135865000D02*
X188008000Y-135865000D01*
X189024000Y-137135000D02*
X189024000Y-135865000D01*
X185976000Y-135865000D02*
X186992000Y-135865000D01*
X185976000Y-137135000D02*
X185976000Y-135865000D01*
X186992000Y-137135000D02*
X185976000Y-137135000D01*
X182508000Y-131865000D02*
X183524000Y-131865000D01*
X183524000Y-131865000D02*
X183524000Y-133135000D01*
X183524000Y-133135000D02*
X182508000Y-133135000D01*
X180476000Y-131865000D02*
X180476000Y-133135000D01*
X180476000Y-133135000D02*
X181492000Y-133135000D01*
X180476000Y-131865000D02*
X181492000Y-131865000D01*
X180476000Y-133865000D02*
X181492000Y-133865000D01*
X180476000Y-135135000D02*
X181492000Y-135135000D01*
X180476000Y-133865000D02*
X180476000Y-135135000D01*
X183524000Y-135135000D02*
X182508000Y-135135000D01*
X183524000Y-133865000D02*
X183524000Y-135135000D01*
X182508000Y-133865000D02*
X183524000Y-133865000D01*
D10*
X189636020Y-132021720D02*
X192069340Y-134442340D01*
D11*
X192599037Y-133185040D02*
G75*
G03X192599037Y-133185040I-1802237J0D01*
G01*
D14*
X197782380Y-129738095D02*
X196782380Y-129738095D01*
X196782380Y-129357142D01*
X196830000Y-129261904D01*
X196877619Y-129214285D01*
X196972857Y-129166666D01*
X197115714Y-129166666D01*
X197210952Y-129214285D01*
X197258571Y-129261904D01*
X197306190Y-129357142D01*
X197306190Y-129738095D01*
X197782380Y-128214285D02*
X197782380Y-128785714D01*
X197782380Y-128500000D02*
X196782380Y-128500000D01*
X196925238Y-128595238D01*
X197020476Y-128690476D01*
X197068095Y-128785714D01*
X194668303Y-134750000D02*
X194634970Y-134783333D01*
X194534970Y-134816666D01*
X194468303Y-134816666D01*
X194368303Y-134783333D01*
X194301636Y-134716666D01*
X194268303Y-134650000D01*
X194234970Y-134516666D01*
X194234970Y-134416666D01*
X194268303Y-134283333D01*
X194301636Y-134216666D01*
X194368303Y-134150000D01*
X194468303Y-134116666D01*
X194534970Y-134116666D01*
X194634970Y-134150000D01*
X194668303Y-134183333D01*
X195268303Y-134116666D02*
X195134970Y-134116666D01*
X195068303Y-134150000D01*
X195034970Y-134183333D01*
X194968303Y-134283333D01*
X194934970Y-134416666D01*
X194934970Y-134683333D01*
X194968303Y-134750000D01*
X195001636Y-134783333D01*
X195068303Y-134816666D01*
X195201636Y-134816666D01*
X195268303Y-134783333D01*
X195301636Y-134750000D01*
X195334970Y-134683333D01*
X195334970Y-134516666D01*
X195301636Y-134450000D01*
X195268303Y-134416666D01*
X195201636Y-134383333D01*
X195068303Y-134383333D01*
X195001636Y-134416666D01*
X194968303Y-134450000D01*
X194934970Y-134516666D01*
X184383333Y-136750000D02*
X184350000Y-136783333D01*
X184250000Y-136816666D01*
X184183333Y-136816666D01*
X184083333Y-136783333D01*
X184016666Y-136716666D01*
X183983333Y-136650000D01*
X183950000Y-136516666D01*
X183950000Y-136416666D01*
X183983333Y-136283333D01*
X184016666Y-136216666D01*
X184083333Y-136150000D01*
X184183333Y-136116666D01*
X184250000Y-136116666D01*
X184350000Y-136150000D01*
X184383333Y-136183333D01*
X185016666Y-136116666D02*
X184683333Y-136116666D01*
X184650000Y-136450000D01*
X184683333Y-136416666D01*
X184750000Y-136383333D01*
X184916666Y-136383333D01*
X184983333Y-136416666D01*
X185016666Y-136450000D01*
X185050000Y-136516666D01*
X185050000Y-136683333D01*
X185016666Y-136750000D01*
X184983333Y-136783333D01*
X184916666Y-136816666D01*
X184750000Y-136816666D01*
X184683333Y-136783333D01*
X184650000Y-136750000D01*
X184298301Y-138735785D02*
X184264968Y-138769118D01*
X184164968Y-138802451D01*
X184098301Y-138802451D01*
X183998301Y-138769118D01*
X183931634Y-138702451D01*
X183898301Y-138635785D01*
X183864968Y-138502451D01*
X183864968Y-138402451D01*
X183898301Y-138269118D01*
X183931634Y-138202451D01*
X183998301Y-138135785D01*
X184098301Y-138102451D01*
X184164968Y-138102451D01*
X184264968Y-138135785D01*
X184298301Y-138169118D01*
X184898301Y-138335785D02*
X184898301Y-138802451D01*
X184731634Y-138069118D02*
X184564968Y-138569118D01*
X184998301Y-138569118D01*
X189798301Y-138711785D02*
X189764968Y-138745118D01*
X189664968Y-138778451D01*
X189598301Y-138778451D01*
X189498301Y-138745118D01*
X189431634Y-138678451D01*
X189398301Y-138611785D01*
X189364968Y-138478451D01*
X189364968Y-138378451D01*
X189398301Y-138245118D01*
X189431634Y-138178451D01*
X189498301Y-138111785D01*
X189598301Y-138078451D01*
X189664968Y-138078451D01*
X189764968Y-138111785D01*
X189798301Y-138145118D01*
X190031634Y-138078451D02*
X190464968Y-138078451D01*
X190231634Y-138345118D01*
X190331634Y-138345118D01*
X190398301Y-138378451D01*
X190431634Y-138411785D01*
X190464968Y-138478451D01*
X190464968Y-138645118D01*
X190431634Y-138711785D01*
X190398301Y-138745118D01*
X190331634Y-138778451D01*
X190131634Y-138778451D01*
X190064968Y-138745118D01*
X190031634Y-138711785D01*
X194668302Y-136750000D02*
X194634969Y-136783333D01*
X194534969Y-136816666D01*
X194468302Y-136816666D01*
X194368302Y-136783333D01*
X194301635Y-136716666D01*
X194268302Y-136650000D01*
X194234969Y-136516666D01*
X194234969Y-136416666D01*
X194268302Y-136283333D01*
X194301635Y-136216666D01*
X194368302Y-136150000D01*
X194468302Y-136116666D01*
X194534969Y-136116666D01*
X194634969Y-136150000D01*
X194668302Y-136183333D01*
X194934969Y-136183333D02*
X194968302Y-136150000D01*
X195034969Y-136116666D01*
X195201635Y-136116666D01*
X195268302Y-136150000D01*
X195301635Y-136183333D01*
X195334969Y-136250000D01*
X195334969Y-136316666D01*
X195301635Y-136416666D01*
X194901635Y-136816666D01*
X195334969Y-136816666D01*
X194668302Y-138750000D02*
X194634969Y-138783333D01*
X194534969Y-138816666D01*
X194468302Y-138816666D01*
X194368302Y-138783333D01*
X194301635Y-138716666D01*
X194268302Y-138650000D01*
X194234969Y-138516666D01*
X194234969Y-138416666D01*
X194268302Y-138283333D01*
X194301635Y-138216666D01*
X194368302Y-138150000D01*
X194468302Y-138116666D01*
X194534969Y-138116666D01*
X194634969Y-138150000D01*
X194668302Y-138183333D01*
X195334969Y-138816666D02*
X194934969Y-138816666D01*
X195134969Y-138816666D02*
X195134969Y-138116666D01*
X195068302Y-138216666D01*
X195001635Y-138283333D01*
X194934969Y-138316666D01*
X188726200Y-147941980D02*
X188916676Y-147941980D01*
X189011914Y-147989600D01*
X189107152Y-148084838D01*
X189154771Y-148275314D01*
X189154771Y-148608647D01*
X189107152Y-148799123D01*
X189011914Y-148894361D01*
X188916676Y-148941980D01*
X188726200Y-148941980D01*
X188630961Y-148894361D01*
X188535723Y-148799123D01*
X188488104Y-148608647D01*
X188488104Y-148275314D01*
X188535723Y-148084838D01*
X188630961Y-147989600D01*
X188726200Y-147941980D01*
X190059533Y-148941980D02*
X189583342Y-148941980D01*
X189583342Y-147941980D01*
X190392866Y-148418171D02*
X190726200Y-148418171D01*
X190869057Y-148941980D02*
X190392866Y-148941980D01*
X190392866Y-147941980D01*
X190869057Y-147941980D01*
X191297628Y-148941980D02*
X191297628Y-147941980D01*
X191535723Y-147941980D01*
X191678580Y-147989600D01*
X191773819Y-148084838D01*
X191821438Y-148180076D01*
X191869057Y-148370552D01*
X191869057Y-148513409D01*
X191821438Y-148703885D01*
X191773819Y-148799123D01*
X191678580Y-148894361D01*
X191535723Y-148941980D01*
X191297628Y-148941980D01*
X192297628Y-148941980D02*
X192297628Y-147941980D01*
X192630961Y-148656266D01*
X192964295Y-147941980D01*
X192964295Y-148941980D01*
X193964295Y-148941980D02*
X193392866Y-148941980D01*
X193678580Y-148941980D02*
X193678580Y-147941980D01*
X193583342Y-148084838D01*
X193488104Y-148180076D01*
X193392866Y-148227695D01*
X194668301Y-132816666D02*
X194434968Y-132483333D01*
X194268301Y-132816666D02*
X194268301Y-132116666D01*
X194534968Y-132116666D01*
X194601634Y-132150000D01*
X194634968Y-132183333D01*
X194668301Y-132250000D01*
X194668301Y-132350000D01*
X194634968Y-132416666D01*
X194601634Y-132450000D01*
X194534968Y-132483333D01*
X194268301Y-132483333D01*
X195268301Y-132350000D02*
X195268301Y-132816666D01*
X195101634Y-132083333D02*
X194934968Y-132583333D01*
X195368301Y-132583333D01*
X189798302Y-136850451D02*
X189564969Y-136517118D01*
X189398302Y-136850451D02*
X189398302Y-136150451D01*
X189664969Y-136150451D01*
X189731635Y-136183785D01*
X189764969Y-136217118D01*
X189798302Y-136283785D01*
X189798302Y-136383785D01*
X189764969Y-136450451D01*
X189731635Y-136483785D01*
X189664969Y-136517118D01*
X189398302Y-136517118D01*
X190031635Y-136150451D02*
X190464969Y-136150451D01*
X190231635Y-136417118D01*
X190331635Y-136417118D01*
X190398302Y-136450451D01*
X190431635Y-136483785D01*
X190464969Y-136550451D01*
X190464969Y-136717118D01*
X190431635Y-136783785D01*
X190398302Y-136817118D01*
X190331635Y-136850451D01*
X190131635Y-136850451D01*
X190064969Y-136817118D01*
X190031635Y-136783785D01*
X184298302Y-132898451D02*
X184064969Y-132565118D01*
X183898302Y-132898451D02*
X183898302Y-132198451D01*
X184164969Y-132198451D01*
X184231635Y-132231785D01*
X184264969Y-132265118D01*
X184298302Y-132331785D01*
X184298302Y-132431785D01*
X184264969Y-132498451D01*
X184231635Y-132531785D01*
X184164969Y-132565118D01*
X183898302Y-132565118D01*
X184564969Y-132265118D02*
X184598302Y-132231785D01*
X184664969Y-132198451D01*
X184831635Y-132198451D01*
X184898302Y-132231785D01*
X184931635Y-132265118D01*
X184964969Y-132331785D01*
X184964969Y-132398451D01*
X184931635Y-132498451D01*
X184531635Y-132898451D01*
X184964969Y-132898451D01*
X184298301Y-134874451D02*
X184064968Y-134541118D01*
X183898301Y-134874451D02*
X183898301Y-134174451D01*
X184164968Y-134174451D01*
X184231634Y-134207785D01*
X184264968Y-134241118D01*
X184298301Y-134307785D01*
X184298301Y-134407785D01*
X184264968Y-134474451D01*
X184231634Y-134507785D01*
X184164968Y-134541118D01*
X183898301Y-134541118D01*
X184964968Y-134874451D02*
X184564968Y-134874451D01*
X184764968Y-134874451D02*
X184764968Y-134174451D01*
X184698301Y-134274451D01*
X184631634Y-134341118D01*
X184564968Y-134374451D01*
X190166666Y-126952380D02*
X189833333Y-126476190D01*
X189595238Y-126952380D02*
X189595238Y-125952380D01*
X189976190Y-125952380D01*
X190071428Y-126000000D01*
X190119047Y-126047619D01*
X190166666Y-126142857D01*
X190166666Y-126285714D01*
X190119047Y-126380952D01*
X190071428Y-126428571D01*
X189976190Y-126476190D01*
X189595238Y-126476190D01*
X190595238Y-126428571D02*
X190928571Y-126428571D01*
X191071428Y-126952380D02*
X190595238Y-126952380D01*
X190595238Y-125952380D01*
X191071428Y-125952380D01*
X191833333Y-126428571D02*
X191500000Y-126428571D01*
X191500000Y-126952380D02*
X191500000Y-125952380D01*
X191976190Y-125952380D01*
X192500000Y-125952380D02*
X192500000Y-126190476D01*
X192261904Y-126095238D02*
X192500000Y-126190476D01*
X192738095Y-126095238D01*
X192357142Y-126380952D02*
X192500000Y-126190476D01*
X192642857Y-126380952D01*
X193261904Y-125952380D02*
X193261904Y-126190476D01*
X193023809Y-126095238D02*
X193261904Y-126190476D01*
X193500000Y-126095238D01*
X193119047Y-126380952D02*
X193261904Y-126190476D01*
X193404761Y-126380952D01*
D11*
X189842211Y-133933767D02*
X189842211Y-132233767D01*
X190413640Y-132233767D01*
X190556497Y-132314720D01*
X190627925Y-132395672D01*
X190699354Y-132557577D01*
X190699354Y-132800434D01*
X190627925Y-132962339D01*
X190556497Y-133043291D01*
X190413640Y-133124243D01*
X189842211Y-133124243D01*
X191342211Y-133933767D02*
X191342211Y-132233767D01*
X191342211Y-132881386D02*
X191485068Y-132800434D01*
X191770782Y-132800434D01*
X191913640Y-132881386D01*
X191985068Y-132962339D01*
X192056497Y-133124243D01*
X192056497Y-133609958D01*
X191985068Y-133771862D01*
X191913640Y-133852815D01*
X191770782Y-133933767D01*
X191485068Y-133933767D01*
X191342211Y-133852815D01*
M02*
